<svg width="50" height="50" viewBox="0 0 50 50" fill="none" xmlns="http://www.w3.org/2000/svg">
<path d="M38.0606 9.11567L40.3018 3.13911C40.4255 2.80923 40.3795 2.4396 40.1788 2.15005C39.9782 1.8605 39.6483 1.68774 39.2959 1.68774H22.8986V3.83618H37.7458L35.9074 8.73853C35.8162 8.98169 35.8162 9.24966 35.9074 9.49292L37.7458 14.3953H22.8986V16.5437H39.2959C39.6483 16.5437 39.9782 16.3709 40.1788 16.0814C40.3795 15.7918 40.4254 15.4222 40.3018 15.0923L38.0606 9.11567Z" fill="#7E80E2"/>
<path d="M32.9422 47.8516H31.3617L29.2069 40.5792C29.0718 40.123 28.6527 39.8102 28.177 39.8102H22.8975V1.07422C22.8975 0.480957 22.4165 0 21.8232 0C21.23 0 20.749 0.480957 20.749 1.07422V39.8102H15.4695C14.9938 39.8102 14.5747 40.123 14.4395 40.5792L12.2847 47.8516H10.7041C10.1108 47.8516 9.62988 48.3325 9.62988 48.9258C9.62988 49.519 10.1108 50 10.7041 50H32.9422C33.5354 50 34.0164 49.519 34.0164 48.9258C34.0164 48.3325 33.5354 47.8516 32.9422 47.8516ZM16.2715 41.9586H27.3748L29.1209 47.8516H14.5254L16.2715 41.9586Z" fill="white"/>
</svg>
