<svg width="60" height="60" viewBox="0 0 60 60" fill="none" xmlns="http://www.w3.org/2000/svg">
<path d="M30 60C46.5685 60 60 46.5685 60 30C60 13.4315 46.5685 0 30 0C13.4315 0 0 13.4315 0 30C0 46.5685 13.4315 60 30 60Z" fill="#0052B4"/>
<path d="M30.0001 11.7391L30.9714 14.7285H34.1144L31.5716 16.5759L32.5429 19.5653L30.0001 17.7177L27.4571 19.5653L28.4285 16.5759L25.8856 14.7285H29.0287L30.0001 11.7391Z" fill="#FFDA44"/>
<path d="M17.0873 17.0876L19.8881 18.5145L22.1106 16.2921L21.6188 19.3964L24.4194 20.8234L21.315 21.3151L20.8233 24.4197L19.3963 21.619L16.292 22.1108L18.5145 19.8884L17.0873 17.0876Z" fill="#FFDA44"/>
<path d="M11.7393 30L14.7286 29.0286V25.8855L16.5759 28.4285L19.5654 27.4571L17.7177 30L19.5654 32.5428L16.5759 31.5716L14.7286 34.1144V30.9714L11.7393 30Z" fill="#FFDA44"/>
<path d="M17.0873 42.9124L18.5143 40.1116L16.292 37.8892L19.3964 38.3811L20.8232 35.5804L21.315 38.6849L24.4193 39.1766L21.619 40.6036L22.1106 43.7079L19.8881 41.4854L17.0873 42.9124Z" fill="#FFDA44"/>
<path d="M30.0001 48.2608L29.0286 45.2715H25.8856L28.4286 43.4241L27.4571 40.435L30.0001 42.2823L32.5429 40.435L31.5716 43.4241L34.1144 45.2715H30.9713L30.0001 48.2608Z" fill="#FFDA44"/>
<path d="M42.9124 42.9124L40.1117 41.4855L37.8892 43.708L38.381 40.6035L35.5806 39.1766L38.6849 38.6849L39.1766 35.5804L40.6035 38.3811L43.7078 37.8892L41.4853 40.1119L42.9124 42.9124Z" fill="#FFDA44"/>
<path d="M48.2608 30L45.2715 30.9714V34.1144L43.424 31.5715L40.4349 32.5428L42.2824 30L40.4349 27.4571L43.4242 28.4285L45.2715 25.8855V29.0287L48.2608 30Z" fill="#FFDA44"/>
<path d="M42.9124 17.0876L41.4854 19.8884L43.7079 22.1108L40.6033 21.6189L39.1766 24.4195L38.6849 21.3151L35.5806 20.8233L38.381 19.3964L37.8892 16.2922L40.1119 18.5146L42.9124 17.0876Z" fill="#FFDA44"/>
</svg>
