<svg width="120" height="101" fill="none" xmlns="http://www.w3.org/2000/svg"><path fill-rule="evenodd" clip-rule="evenodd" d="M77.94 98.38a7.3 7.3 0 0 0 5.26 1.9c2.18 0 4.09-.65 5.72-1.96V93.2h-5.89v1.3h4.33v3.2a6.76 6.76 0 0 1-4.1 1.28c-1.71 0-3.08-.5-4.1-1.5a5.13 5.13 0 0 1-1.54-3.83 5.13 5.13 0 0 1 1.54-3.75 5.23 5.23 0 0 1 3.87-1.55c1.58-.02 3.1.5 4.34 1.47l1.04-1.1a8.5 8.5 0 0 0-2.37-1.3 9.09 9.09 0 0 0-2.94-.41c-2.08 0-3.8.65-5.13 1.96a6.3 6.3 0 0 0-2.02 4.67c0 1.9.66 3.48 1.99 4.74ZM0 87.23v12.83h1.6V87.23H0Zm6.8 0v12.83h1.6v-4.52h3.46c1.6 0 2.94-.37 4-1.1a3.55 3.55 0 0 0 1.6-3.1c0-1.27-.48-2.28-1.44-3.01a6.25 6.25 0 0 0-3.9-1.1H6.8Zm5.13 6.99H8.4v-5.65H12c1.19 0 2.12.24 2.8.72a2.38 2.38 0 0 1 1.03 2.06 2.45 2.45 0 0 1-1.07 2.09c-.7.52-1.65.78-2.83.78Zm16.6 5.84V87.23h1.61v11.5h8.02v1.33h-9.63Zm15.65-12.83v12.83h10.4v-1.32H45.8v-4.49h7.78v-1.32h-7.78v-4.38h8.69v-1.32h-10.3Zm15.47 12.83V87.23h4.95c2.22 0 4.04.6 5.45 1.82a5.8 5.8 0 0 1 2.12 4.6 5.8 5.8 0 0 1-2.13 4.58 8.04 8.04 0 0 1-5.44 1.83h-4.95Zm1.6-1.33h3.35c1.77 0 3.2-.48 4.28-1.44a4.89 4.89 0 0 0-.01-7.27 6.19 6.19 0 0 0-4.27-1.45h-3.34v10.16Zm32.3 1.33V87.23h10.3v1.32h-8.68v4.38h7.77v1.32h-7.78v4.5h8.8v1.31h-10.4Zm14.66-12.83v12.83h1.61v-4.98h4.08l4.13 4.98H120l-4.38-5.24c1.17-.2 2.1-.61 2.8-1.25a3.2 3.2 0 0 0 1.06-2.5 3.3 3.3 0 0 0-1.1-2.56c-.94-.85-2.3-1.28-4.04-1.28h-6.13Zm5.98 6.55h-4.37v-5.21h4.4c1.13 0 2.02.22 2.67.67a2.14 2.14 0 0 1 .97 1.86 2.27 2.27 0 0 1-1.02 1.96 4.5 4.5 0 0 1-2.65.72Z" fill="url(#a)"/><path d="m96.02 18.16-9.18 19.38s8.03-4.9 9.08-11.08c1.05-6.18.1-8.3.1-8.3Z" fill="url(#b)"/><path fill-rule="evenodd" clip-rule="evenodd" d="M102.62 41.99c0 24.02-20.06 40.26-44.5 40.26-24.43 0-41.68-14.71-41.68-38.74S36.25 0 60.7 0c24.43 0 41.93 17.96 41.93 41.99Z" fill="url(#c)"/><path fill-rule="evenodd" clip-rule="evenodd" d="M67.5.76c12.96 2.4 9.2 17.08-3.68 16.53-8.96-.38-19.07-1.48-28.93 2.07-10.7 3.85-16.29 11.74-18.45 23.26A43.21 43.21 0 0 1 67.5.76Z" fill="url(#d)"/><path d="m34.56 71.19-2.33-1.67a34.79 34.79 0 0 1-6.84-6.07c-3.97-4.8-6.41-13.37-3.64-19.41 1.81-3.96 5.67-6.14 11.48-6.5.83-.06 1.69-.09 2.57-.09 5.43 0 11.4.98 17.18 1.92 5.85.96 11.89 1.94 17.45 1.94 1.4 0 2.81-.06 4.21-.2 8.34-.9 15.16-4.63 18.7-10.25a18.04 18.04 0 0 0 2.72-9.54l.03-2.94.96 2.79c.32.92.6 1.86.86 2.8 2.76 10.33 1.7 19.38-3 25.5-4.58 5.97-12.44 8.89-22.57 8.37-5.46-.29-10.89-1.57-16.13-2.8-5.42-1.29-10.55-2.5-15.28-2.5-1.66-.02-3.32.16-4.94.53-4.57 1.08-5.88 3.8-6.18 5.9-.39 2.81.72 6.31 3.14 9.86l1.61 2.36Zm1.24-32.72c-.86 0-1.7.03-2.5.08-5.4.34-8.97 2.33-10.62 5.91-2.57 5.6-.19 13.88 3.5 18.34a28.97 28.97 0 0 0 4.56 4.33c-1.6-2.97-2.27-5.86-1.93-8.3.34-2.42 1.82-5.54 6.95-6.75 1.7-.39 3.44-.58 5.18-.56 4.84 0 10.02 1.22 15.51 2.52 5.2 1.23 10.57 2.5 15.95 2.78 9.77.5 17.34-2.27 21.7-7.97 4.5-5.86 5.5-14.6 2.83-24.61a9.01 9.01 0 0 0-.05-.19 18.59 18.59 0 0 1-2.68 7.35c-3.7 5.9-10.8 9.8-19.45 10.72-1.44.15-2.88.22-4.32.22-5.64 0-11.73-1-17.6-1.96-5.75-.94-11.68-1.9-17.03-1.9Z" fill="#6667AB"/><path opacity=".01" d="M80.87 54.67a9.58 9.58 0 0 1-.94 3.92c-1.55 3.22-4.95 5.63-9.32 6.6-.72.16-1.46.28-2.2.37-2.88.32-6.04.17-9.1.02-1.66-.08-3.34-.16-4.98-.17a33.11 33.11 0 0 0-5.12.38c-2.73.48-4.44 1.7-5.08 3.64-.98 2.97.75 6.95 2.86 9.18.8.7 1.66 1.34 2.56 1.91a7.12 7.12 0 0 1-1.45-4.1c.03-1.27.6-2.95 3.16-3.86.84-.3 1.72-.5 2.61-.58 2.48-.28 5.2.04 8.07.38 2.73.33 5.54.66 8.3.5l1.15-.1c4.46-.5 7.74-2.32 9.5-5.24 1.96-3.26 1.94-7.78.01-12.74l-.03-.1Zm-.73-2.85.65 1.37c.22.45.42.92.6 1.38 2.02 5.12 2 9.81-.05 13.21-1.84 3.07-5.25 4.97-9.86 5.48-.38.05-.78.08-1.18.1-2.81.18-5.66-.16-8.4-.49-2.86-.34-5.55-.66-7.96-.38-.85.09-1.69.27-2.5.56-2.28.82-2.8 2.28-2.82 3.37-.04 1.46.74 3.18 2.18 4.85l.96 1.11-1.29-.7a21.78 21.78 0 0 1-3.84-2.7c-2.24-2.36-4.04-6.56-3-9.72.7-2.13 2.55-3.47 5.5-4 .41-.07.85-.14 1.3-.18 2.78-.32 5.88-.17 8.9-.02 3.03.15 6.18.3 9.02-.02.72-.08 1.43-.2 2.14-.35 4.21-.94 7.48-3.25 8.97-6.33a9.27 9.27 0 0 0 .84-5.03l-.16-1.5Z" fill="#343557"/><path opacity=".02" d="M81.05 54.32a9.67 9.67 0 0 1-.96 3.95c-1.57 3.26-5.01 5.68-9.44 6.66-.73.15-1.47.27-2.22.36-2.91.32-6.11.15-9.2 0-1.69-.09-3.39-.18-5.05-.19a33.6 33.6 0 0 0-5.16.36c-2.77.48-4.5 1.72-5.14 3.67-1 3 .73 7.03 2.86 9.28.81.71 1.68 1.36 2.58 1.95a7.26 7.26 0 0 1-1.45-4.16c.03-1.28.62-2.97 3.2-3.89.86-.3 1.74-.5 2.64-.58 2.5-.29 5.26.05 8.17.4 2.74.34 5.58.68 8.35.52.4-.02.79-.05 1.17-.1 4.52-.48 7.85-2.3 9.64-5.26 1.99-3.29 1.99-7.86.04-12.88a.76.76 0 0 0-.03-.1Zm-.73-2.89.66 1.39c.22.45.42.92.6 1.4 2.03 5.17 2 9.91-.08 13.35-1.87 3.09-5.33 5-9.99 5.51-.39.05-.79.08-1.2.1-2.84.17-5.71-.18-8.5-.52-2.87-.35-5.6-.68-8.03-.4-.86.08-1.7.27-2.52.55-2.3.82-2.83 2.3-2.86 3.4-.04 1.48.74 3.22 2.2 4.92l.96 1.12-1.3-.73a22.02 22.02 0 0 1-3.88-2.74c-2.25-2.38-4.06-6.63-3-9.83.71-2.14 2.58-3.5 5.56-4.02.42-.07.87-.14 1.32-.18 2.8-.32 5.95-.16 9 0 3.07.15 6.24.32 9.12 0 .73-.08 1.45-.2 2.16-.35 4.27-.94 7.57-3.26 9.08-6.37a9.37 9.37 0 0 0 .86-5.09l-.16-1.51Z" fill="#343558"/><path opacity=".03" d="M81.24 53.96a9.8 9.8 0 0 1-.98 4c-1.6 3.28-5.09 5.72-9.56 6.7-.74.15-1.49.27-2.24.35-2.94.32-6.18.14-9.31-.02-1.7-.1-3.42-.19-5.1-.2a34.03 34.03 0 0 0-5.2.35c-2.8.48-4.56 1.73-5.22 3.7-1.01 3.02.72 7.1 2.88 9.38a21.1 21.1 0 0 0 2.6 1.97 7.32 7.32 0 0 1-1.46-4.2c.04-1.29.63-3 3.25-3.92.86-.3 1.76-.5 2.67-.58 2.53-.28 5.3.07 8.24.43 2.77.34 5.63.7 8.43.54.4-.02.8-.05 1.18-.09 4.58-.48 7.96-2.3 9.78-5.3 2.02-3.31 2.03-7.93.08-13.02a1.33 1.33 0 0 1-.04-.1Zm-.73-2.93.66 1.4c.22.47.42.94.6 1.42 2.04 5.24 2 10.03-.11 13.5-1.9 3.12-5.4 5.04-10.1 5.55l-1.22.1c-2.88.16-5.78-.2-8.59-.55-2.9-.36-5.66-.7-8.12-.44-.87.09-1.73.28-2.55.56-2.33.82-2.86 2.32-2.9 3.43-.05 1.5.74 3.26 2.2 4.98l.98 1.14-1.31-.73a22.31 22.31 0 0 1-3.92-2.78c-2.28-2.42-4.1-6.72-3.01-9.95.72-2.17 2.61-3.53 5.63-4.05.43-.07.88-.14 1.34-.19 2.83-.3 6.01-.14 9.08.03 3.11.17 6.32.34 9.23.03.73-.08 1.46-.2 2.19-.35 4.3-.94 7.66-3.27 9.19-6.42a9.48 9.48 0 0 0 .88-5.14l-.15-1.54Z" fill="#353659"/><path opacity=".05" d="M81.43 53.6a9.88 9.88 0 0 1-1 4.03c-1.63 3.32-5.15 5.78-9.68 6.75-.75.16-1.5.28-2.27.36-2.98.31-6.25.13-9.4-.05-1.72-.1-3.46-.2-5.16-.2-1.31-.03-2.63.02-3.94.15-.46.05-.9.1-1.33.18-2.83.48-4.6 1.73-5.27 3.72-1.03 3.06.71 7.19 2.88 9.5.82.73 1.7 1.4 2.63 2a7.39 7.39 0 0 1-1.47-4.26c.04-1.3.65-3.03 3.3-3.95.87-.3 1.78-.5 2.7-.59 2.55-.27 5.36.09 8.33.47 2.79.35 5.67.7 8.5.56l1.18-.1c4.64-.46 8.08-2.3 9.93-5.32 2.05-3.35 2.07-8.02.1-13.17a.61.61 0 0 1-.03-.08Zm-.73-2.96.66 1.42c.22.47.42.95.61 1.44 2.04 5.3 1.98 10.14-.15 13.64-1.93 3.15-5.47 5.08-10.23 5.59l-1.23.1c-2.9.15-5.83-.22-8.67-.58-2.94-.38-5.72-.73-8.22-.46-.88.08-1.74.27-2.58.56-2.35.82-2.9 2.34-2.93 3.46-.05 1.5.73 3.3 2.2 5.03l.99 1.16-1.32-.75a22.54 22.54 0 0 1-3.95-2.82c-2.3-2.44-4.12-6.8-3.02-10.06.74-2.19 2.66-3.56 5.7-4.08.44-.07.9-.14 1.36-.18 2.87-.3 6.08-.12 9.18.05 3.14.18 6.39.36 9.32.05.75-.08 1.49-.2 2.22-.36 4.36-.93 7.75-3.29 9.3-6.46.79-1.6 1.1-3.4.91-5.18l-.15-1.57Z" fill="#35365A"/><path opacity=".06" d="M81.62 53.24a9.98 9.98 0 0 1-1.02 4.07c-1.66 3.35-5.23 5.83-9.8 6.8-.76.16-1.52.28-2.3.36-3 .3-6.31.11-9.5-.07-1.73-.1-3.5-.2-5.2-.23-1.34-.03-2.67.02-4 .15-.46.05-.9.1-1.33.18-2.87.48-4.67 1.74-5.35 3.75-1.05 3.09.7 7.27 2.9 9.6.82.75 1.7 1.43 2.64 2.04a7.5 7.5 0 0 1-1.47-4.3c.05-1.33.66-3.07 3.34-4 .88-.3 1.8-.5 2.73-.58 2.59-.27 5.42.1 8.43.49 2.8.36 5.7.73 8.55.59.4-.02.81-.05 1.2-.09 4.7-.45 8.2-2.3 10.07-5.36 2.08-3.38 2.11-8.1.14-13.3 0-.04-.02-.07-.03-.1Zm-.73-3 .66 1.44c.22.48.42.97.62 1.46 2.04 5.36 1.98 10.25-.2 13.78-1.94 3.18-5.53 5.13-10.35 5.62l-1.24.1c-2.94.15-5.9-.24-8.76-.6-2.98-.4-5.78-.75-8.3-.5-.9.1-1.77.28-2.61.57-2.39.83-2.94 2.35-2.98 3.49-.05 1.52.74 3.33 2.23 5.09l.99 1.17-1.34-.76a22.7 22.7 0 0 1-3.98-2.85c-2.32-2.48-4.15-6.88-3.03-10.18.75-2.2 2.7-3.6 5.77-4.1.44-.08.9-.15 1.37-.2 2.9-.3 6.15-.1 9.28.08 3.18.19 6.46.38 9.43.07.75-.07 1.5-.19 2.24-.34 4.4-.94 7.84-3.3 9.42-6.5a9.67 9.67 0 0 0 .92-5.25l-.14-1.58Z" fill="#36375B"/><path opacity=".07" d="M81.8 52.88c-.04 1.43-.4 2.83-1.03 4.11-1.69 3.38-5.3 5.89-9.92 6.85-.77.16-1.54.27-2.32.35-3.05.31-6.38.1-9.61-.09-1.75-.1-3.53-.22-5.26-.24a35.1 35.1 0 0 0-4.03.14c-.47.05-.92.1-1.35.18-2.9.47-4.72 1.75-5.4 3.77-1.08 3.12.68 7.35 2.89 9.72.83.75 1.73 1.44 2.67 2.05a7.52 7.52 0 0 1-1.47-4.35c.05-1.33.68-3.09 3.38-4.02.9-.3 1.83-.5 2.77-.59 2.6-.26 5.47.11 8.5.52 2.84.36 5.76.74 8.63.61l1.2-.08c4.77-.44 8.31-2.31 10.22-5.4 2.11-3.4 2.16-8.17.18-13.44a.98.98 0 0 1-.04-.1Zm-.72-3.03.66 1.46c.22.48.43.98.62 1.47 2.06 5.42 1.98 10.37-.22 13.93-1.99 3.2-5.6 5.16-10.48 5.66-.4.04-.82.07-1.25.09-2.97.14-5.96-.25-8.86-.63-3-.4-5.83-.77-8.38-.51-.9.08-1.79.27-2.64.56-2.41.83-2.97 2.37-3.01 3.52-.06 1.54.73 3.36 2.23 5.15l1 1.18-1.35-.77a23 23 0 0 1-4.02-2.9c-2.33-2.5-4.17-6.96-3.04-10.29.77-2.23 2.73-3.62 5.85-4.14.44-.07.9-.14 1.38-.18 2.93-.3 6.21-.1 9.39.1 3.2.2 6.52.4 9.52.1.76-.08 1.52-.2 2.26-.35 4.46-.94 7.94-3.32 9.54-6.55a9.8 9.8 0 0 0 .94-5.3l-.14-1.6Z" fill="#37385C"/><path opacity=".08" d="M82 52.52a10.19 10.19 0 0 1-1.07 4.15c-1.7 3.42-5.36 5.93-10.03 6.9-.78.16-1.56.27-2.35.35-3.08.3-6.44.1-9.7-.12-1.77-.1-3.57-.22-5.32-.25a35.54 35.54 0 0 0-5.44.32c-2.93.47-4.76 1.75-5.47 3.8-1.09 3.15.68 7.43 2.9 9.82.85.76 1.75 1.46 2.7 2.09a7.63 7.63 0 0 1-1.48-4.41c.05-1.35.69-3.12 3.42-4.06.91-.3 1.85-.5 2.8-.59 2.64-.26 5.53.13 8.6.54 2.85.38 5.8.76 8.68.64l1.21-.08c4.83-.44 8.42-2.3 10.36-5.42 2.14-3.45 2.2-8.27.21-13.6l-.03-.08Zm-.74-3.06.67 1.47c.23.49.43.98.62 1.49 2.07 5.48 1.98 10.48-.26 14.07-2 3.23-5.67 5.2-10.6 5.69l-1.25.1c-3 .13-6.03-.27-8.95-.67-3.04-.4-5.9-.79-8.48-.53-.9.08-1.8.27-2.66.56-2.43.83-3 2.39-3.05 3.55-.06 1.56.74 3.4 2.24 5.2l1 1.2-1.35-.77a23.04 23.04 0 0 1-4.05-2.94c-2.36-2.53-4.2-7.04-3.05-10.4.78-2.26 2.77-3.66 5.92-4.17.44-.08.91-.14 1.4-.18 2.96-.3 6.27-.09 9.47.12 3.24.2 6.59.42 9.62.11.77-.07 1.53-.19 2.28-.34 4.5-.93 8.03-3.34 9.65-6.6a9.88 9.88 0 0 0 .97-5.35l-.14-1.6Z" fill="#37385D"/><path opacity=".09" d="M82.18 52.15c-.06 1.46-.42 2.9-1.08 4.2-1.73 3.45-5.43 5.98-10.15 6.95-.79.16-1.58.28-2.37.35-3.11.3-6.52.08-9.81-.14-1.78-.12-3.6-.24-5.37-.27a35.7 35.7 0 0 0-4.12.13c-.47.04-.93.1-1.37.17-2.96.48-4.83 1.76-5.54 3.83-1.1 3.18.67 7.52 2.91 9.93.85.77 1.76 1.48 2.72 2.11a7.74 7.74 0 0 1-1.49-4.45c.06-1.36.7-3.15 3.48-4.1.91-.3 1.86-.5 2.82-.58 2.67-.25 5.6.14 8.68.57 2.88.38 5.85.78 8.76.66.42-.01.83-.04 1.23-.08 4.89-.43 8.53-2.3 10.5-5.45 2.17-3.48 2.25-8.34.25-13.72l-.05-.1Zm-.73-3.08.68 1.49c.22.49.43 1 .62 1.5 2.07 5.54 1.97 10.6-.3 14.22-2.03 3.26-5.74 5.24-10.71 5.72-.42.04-.84.07-1.28.09-3.03.14-6.09-.28-9.04-.68-3.06-.42-5.95-.82-8.56-.56-.92.08-1.82.26-2.7.56-2.46.84-3.04 2.4-3.09 3.58-.06 1.57.74 3.44 2.26 5.26l1.01 1.22-1.37-.8a23.26 23.26 0 0 1-4.09-2.97c-2.38-2.56-4.23-7.12-3.05-10.52.8-2.27 2.8-3.68 5.99-4.2.45-.07.92-.13 1.4-.18 3-.29 6.35-.07 9.58.14 3.27.22 6.66.44 9.72.14.78-.07 1.55-.18 2.31-.34 4.56-.93 8.12-3.36 9.77-6.64a10 10 0 0 0 .99-5.4l-.14-1.63Z" fill="#38395E"/><path opacity=".1" d="M82.37 51.8a10.4 10.4 0 0 1-1.1 4.23c-1.75 3.48-5.5 6.03-10.27 7-.8.15-1.6.27-2.4.34-3.14.3-6.58.07-9.91-.16-1.8-.12-3.63-.25-5.42-.28-1.39-.04-2.78 0-4.16.12-.48.04-.95.1-1.4.17-2.98.48-4.87 1.77-5.6 3.86-1.12 3.22.66 7.6 2.92 10.03.86.8 1.78 1.5 2.75 2.15a7.8 7.8 0 0 1-1.5-4.5c.06-1.38.72-3.19 3.52-4.13.92-.3 1.88-.5 2.85-.58 2.7-.26 5.65.15 8.78.59 2.9.39 5.88.8 8.82.69l1.23-.08c4.96-.42 8.65-2.3 10.65-5.49 2.2-3.5 2.28-8.42.28-13.87l-.04-.1Zm-.73-3.12.68 1.5c.22.5.43 1 .62 1.52 2.09 5.6 1.96 10.7-.33 14.36-2.06 3.3-5.8 5.28-10.83 5.76-.42.04-.86.07-1.3.09-3.06.12-6.14-.3-9.13-.72-3.1-.42-6.01-.83-8.64-.58-.93.08-1.84.27-2.73.56-2.49.84-3.08 2.43-3.13 3.6-.07 1.6.73 3.49 2.27 5.33l1.02 1.23-1.38-.8a23.48 23.48 0 0 1-4.13-3.02c-2.4-2.59-4.26-7.2-3.05-10.63.8-2.3 2.84-3.72 6.05-4.23.46-.07.94-.13 1.43-.18 3.02-.28 6.4-.05 9.66.17 3.3.22 6.73.45 9.82.16.78-.07 1.56-.18 2.34-.34 4.6-.93 8.2-3.37 9.87-6.69.85-1.69 1.2-3.58 1.02-5.46l-.13-1.63Z" fill="#38395F"/><path opacity=".12" d="M82.56 51.44a10.55 10.55 0 0 1-1.12 4.27c-1.78 3.5-5.57 6.08-10.4 7.04-.8.16-1.6.28-2.42.35-3.17.3-6.65.05-10-.19-1.83-.12-3.68-.25-5.48-.3-1.4-.04-2.8 0-4.2.11-.48.05-.96.1-1.4.18-3.02.47-4.93 1.77-5.67 3.88-1.14 3.24.65 7.68 2.93 10.14a22 22 0 0 0 2.76 2.18 7.83 7.83 0 0 1-1.5-4.56c.06-1.39.73-3.21 3.56-4.16.93-.3 1.9-.5 2.88-.58 2.73-.25 5.7.17 8.86.62 2.92.4 5.93.82 8.9.71.42-.01.84-.04 1.24-.07 5.01-.4 8.75-2.3 10.79-5.52 2.22-3.53 2.32-8.5.3-14l-.03-.1Zm-.73-3.16.68 1.52c.23.5.44 1.02.63 1.54 2.09 5.67 1.96 10.82-.37 14.51-2.09 3.32-5.88 5.32-10.96 5.8a24 24 0 0 1-1.3.08c-3.1.12-6.21-.32-9.22-.74-3.13-.44-6.08-.86-8.74-.61-.93.08-1.86.27-2.75.56-2.52.84-3.11 2.44-3.17 3.64-.08 1.6.73 3.52 2.28 5.39l1.03 1.24-1.4-.81a23.68 23.68 0 0 1-4.16-3.06c-2.42-2.63-4.28-7.29-3.06-10.76.81-2.32 2.87-3.75 6.12-4.26.46-.07.95-.13 1.44-.17 3.06-.28 6.47-.05 9.77.18 3.34.24 6.8.48 9.92.2.8-.08 1.58-.2 2.36-.35 4.65-.93 8.3-3.38 10-6.73a10.2 10.2 0 0 0 1.03-5.51l-.13-1.66Z" fill="#393A60"/><path opacity=".13" d="M82.75 51.07a10.6 10.6 0 0 1-1.15 4.32c-1.8 3.54-5.63 6.13-10.5 7.1-.81.15-1.63.26-2.45.34-3.2.28-6.71.03-10.1-.21-1.84-.14-3.71-.27-5.54-.32a36.78 36.78 0 0 0-4.24.1c-.49.05-.97.1-1.42.18-3.06.47-4.99 1.78-5.74 3.9-1.16 3.28.64 7.77 2.95 10.26.86.8 1.8 1.54 2.79 2.2a7.96 7.96 0 0 1-1.51-4.6c.07-1.4.75-3.25 3.6-4.2.95-.3 1.93-.5 2.92-.58 2.75-.25 5.76.18 8.95.64 2.94.42 5.97.84 8.97.74.42-.01.84-.04 1.25-.07 5.08-.4 8.87-2.3 10.92-5.55 2.26-3.57 2.37-8.58.35-14.14l-.05-.1ZM82 47.9l.69 1.54c.23.5.44 1.03.63 1.55 2.1 5.73 1.96 10.93-.4 14.65-2.12 3.35-5.95 5.37-11.08 5.83-.43.04-.87.07-1.32.09-3.12.11-6.27-.33-9.31-.77-3.16-.45-6.13-.88-8.82-.64-.94.08-1.88.27-2.78.57-2.55.84-3.15 2.46-3.21 3.66-.08 1.63.73 3.56 2.29 5.45l1.03 1.26-1.4-.82a23.95 23.95 0 0 1-4.2-3.1c-2.44-2.65-4.31-7.36-3.07-10.86.83-2.34 2.91-3.78 6.2-4.29.46-.07.95-.13 1.45-.17 3.08-.28 6.54-.03 9.87.2 3.37.25 6.85.5 10.02.22.8-.07 1.59-.18 2.38-.34 4.7-.93 8.38-3.4 10.1-6.78a10.28 10.28 0 0 0 1.06-5.56l-.13-1.7Z" fill="#3A3B61"/><path opacity=".14" d="M82.94 50.71c-.08 1.52-.47 3-1.17 4.36-1.83 3.57-5.7 6.17-10.63 7.14-.81.16-1.64.27-2.47.34-3.24.28-6.78.03-10.2-.23-1.86-.14-3.75-.28-5.59-.33a37.53 37.53 0 0 0-4.29.1c-.5.04-.98.1-1.43.17-3.09.46-5.04 1.79-5.8 3.93-1.18 3.31.62 7.85 2.94 10.37a22.1 22.1 0 0 0 2.8 2.22 8.04 8.04 0 0 1-1.5-4.65c.07-1.42.76-3.27 3.65-4.23.95-.3 1.94-.5 2.94-.58 2.78-.25 5.82.2 9.04.66 2.96.42 6.02.86 9.02.77.42-.01.85-.04 1.26-.07 5.14-.38 8.98-2.3 11.08-5.58 2.29-3.6 2.4-8.66.37-14.28l-.02-.1Zm-.74-3.22.7 1.55c.22.52.43 1.05.63 1.57 2.1 5.8 1.96 11.05-.44 14.8-2.15 3.38-6.02 5.4-11.2 5.86-.44.04-.89.07-1.34.09-3.15.1-6.33-.35-9.4-.8-3.18-.46-6.19-.9-8.9-.66-.96.08-1.9.27-2.82.56-2.57.85-3.18 2.48-3.25 3.7-.08 1.64.74 3.6 2.3 5.5l1.05 1.28-1.42-.84a24.1 24.1 0 0 1-4.22-3.14C41.42 74.3 39.54 69.52 40.8 66c.84-2.36 2.95-3.81 6.27-4.31.47-.08.96-.13 1.47-.18 3.12-.28 6.6-.01 9.96.24 3.4.25 6.93.5 10.12.23.8-.07 1.61-.18 2.4-.34 4.76-.93 8.48-3.42 10.24-6.83a10.4 10.4 0 0 0 1.08-5.61l-.14-1.7Z" fill="#3A3B62"/><path opacity=".15" d="M83.12 50.35a10.84 10.84 0 0 1-1.18 4.4c-1.85 3.6-5.77 6.22-10.75 7.19-.82.15-1.66.27-2.5.34-3.27.28-6.85 0-10.3-.26-1.88-.14-3.79-.28-5.64-.34a37.7 37.7 0 0 0-4.33.09c-.5.04-.98.1-1.45.17-3.12.46-5.09 1.8-5.87 3.96-1.2 3.34.62 7.92 2.95 10.47.89.83 1.84 1.58 2.84 2.26a8.14 8.14 0 0 1-1.52-4.7c.08-1.43.78-3.31 3.7-4.27a13 13 0 0 1 2.97-.58c2.8-.24 5.89.21 9.13.69 2.98.43 6.06.87 9.1.8l1.26-.07c5.2-.38 9.1-2.3 11.22-5.62 2.32-3.62 2.45-8.74.41-14.42l-.04-.1Zm-.73-3.25.7 1.57c.22.52.44 1.05.63 1.59 2.12 5.85 1.95 11.15-.47 14.94-2.17 3.4-6.1 5.44-11.32 5.9-.44.03-.9.06-1.35.07-3.19.11-6.4-.36-9.5-.81-3.21-.48-6.24-.93-8.98-.69-.97.08-1.92.26-2.85.56-2.6.85-3.22 2.5-3.28 3.73-.1 1.65.73 3.63 2.3 5.56l1.06 1.29-1.43-.84a24.24 24.24 0 0 1-4.27-3.18c-2.48-2.7-4.37-7.51-3.08-11.08.85-2.38 2.99-3.85 6.34-4.35.47-.07.98-.13 1.48-.17 3.15-.27 6.67 0 10.06.26 3.44.26 7 .53 10.22.25a23.7 23.7 0 0 0 2.43-.33c4.8-.93 8.57-3.44 10.34-6.88a10.5 10.5 0 0 0 1.1-5.66l-.13-1.73Z" fill="#3B3C63"/><path opacity=".16" d="M83.31 50c-.08 1.54-.49 3.06-1.2 4.43-1.88 3.64-5.84 6.27-10.87 7.24-.83.15-1.68.27-2.52.34-3.3.28-6.92 0-10.41-.28-1.9-.15-3.82-.3-5.7-.36a38.15 38.15 0 0 0-4.37.08c-.5.04-1 .1-1.46.16-3.15.47-5.14 1.81-5.93 4-1.22 3.36.6 8 2.96 10.57.89.84 1.85 1.6 2.86 2.28-1.07-1.65-1.6-3.3-1.52-4.75.08-1.44.79-3.33 3.74-4.3.97-.3 1.98-.5 3-.57 2.84-.24 5.94.22 9.21.71 3 .44 6.11.9 9.16.82.44-.01.87-.03 1.28-.06 5.27-.37 9.21-2.3 11.37-5.65 2.35-3.66 2.49-8.83.44-14.56l-.04-.1Zm-.73-3.3.7 1.6c.23.52.44 1.06.64 1.6 2.13 5.9 1.95 11.26-.5 15.08-2.2 3.44-6.17 5.49-11.45 5.93-.45.04-.9.07-1.36.08-3.22.1-6.46-.38-9.59-.85-3.24-.48-6.3-.94-9.07-.7-.98.07-1.94.26-2.87.56-2.63.85-3.26 2.51-3.33 3.75-.1 1.67.73 3.67 2.32 5.62l1.06 1.3-1.44-.85c-1.55-.91-3-2-4.3-3.22-2.5-2.73-4.4-7.6-3.1-11.2.87-2.4 3.02-3.88 6.4-4.38.49-.07.98-.13 1.5-.17 3.19-.27 6.73.01 10.16.28 3.47.27 7.06.55 10.32.28.82-.07 1.64-.18 2.46-.33 4.84-.93 8.65-3.45 10.45-6.92a10.6 10.6 0 0 0 1.12-5.72l-.12-1.73Z" fill="#3B3C64"/><path opacity=".17" d="M83.5 49.63c-.09 1.57-.5 3.1-1.23 4.48-1.9 3.67-5.91 6.32-10.99 7.29-.84.16-1.69.27-2.54.34-3.34.28-6.99-.02-10.51-.3-1.9-.16-3.85-.31-5.74-.38a38.27 38.27 0 0 0-4.42.07c-.5.04-1 .1-1.48.17-3.18.46-5.2 1.81-6 4.01-1.23 3.4.6 8.09 2.97 10.69.9.85 1.86 1.62 2.89 2.31-1.08-1.68-1.62-3.34-1.53-4.8.08-1.46.8-3.36 3.78-4.33.99-.3 2-.5 3.04-.58 2.86-.23 5.99.24 9.3.74 3.02.45 6.14.9 9.22.84.44-.01.87-.03 1.3-.06 5.32-.35 9.31-2.3 11.5-5.68 2.38-3.69 2.53-8.9.47-14.7l-.03-.1Zm-.74-3.32.7 1.6c.24.53.45 1.08.65 1.62 2.14 5.98 1.94 11.39-.54 15.23-2.23 3.47-6.23 5.53-11.57 5.97a27 27 0 0 1-1.37.07c-3.25.1-6.52-.4-9.68-.87-3.27-.5-6.37-.96-9.16-.74-.98.08-1.96.27-2.9.57-2.65.85-3.3 2.53-3.36 3.78-.1 1.68.73 3.7 2.33 5.68l1.07 1.32-1.46-.87a24.52 24.52 0 0 1-4.34-3.26c-2.52-2.76-4.42-7.68-3.1-11.31.88-2.43 3.06-3.91 6.48-4.4.48-.08 1-.14 1.51-.18 3.22-.26 6.8.03 10.26.3 3.5.28 7.12.57 10.41.3.84-.06 1.66-.17 2.49-.32 4.89-.93 8.74-3.47 10.56-6.97a10.7 10.7 0 0 0 1.15-5.78l-.13-1.74Z" fill="#3C3D65"/><path opacity=".19" d="M83.69 49.27a11.15 11.15 0 0 1-1.24 4.52c-1.94 3.7-5.99 6.37-11.1 7.33-.86.16-1.71.27-2.58.33-3.37.27-7.05-.03-10.6-.32-1.93-.16-3.9-.32-5.8-.39a38.75 38.75 0 0 0-4.46.06c-.52.05-1.02.1-1.5.17-3.2.46-5.24 1.82-6.06 4.04-1.26 3.43.59 8.17 2.98 10.79.9.86 1.87 1.64 2.9 2.34-1.08-1.7-1.62-3.38-1.54-4.85.08-1.47.83-3.4 3.83-4.36 1-.31 2.03-.5 3.07-.57 2.9-.23 6.05.25 9.39.76a56 56 0 0 0 9.3.87c.43 0 .87-.03 1.3-.06 5.38-.34 9.42-2.3 11.64-5.71 2.41-3.72 2.57-8.99.5-14.84l-.03-.1Zm-.74-3.35.7 1.62c.24.53.45 1.08.65 1.64 2.14 6.03 1.94 11.48-.57 15.37-2.26 3.5-6.3 5.57-11.7 6-.45.04-.91.06-1.38.08-3.28.09-6.59-.42-9.77-.9-3.3-.51-6.42-.99-9.25-.76-.99.07-1.97.26-2.92.56-2.68.86-3.34 2.55-3.41 3.81-.1 1.7.73 3.74 2.35 5.75l1.07 1.33-1.47-.89a24.75 24.75 0 0 1-4.37-3.3c-2.55-2.78-4.46-7.75-3.11-11.42.9-2.45 3.1-3.94 6.54-4.44.5-.07 1-.13 1.54-.17 3.24-.26 6.86.04 10.35.33 3.54.29 7.19.59 10.5.32.85-.06 1.68-.17 2.51-.33 4.95-.92 8.84-3.48 10.68-7.01a10.8 10.8 0 0 0 1.17-5.83l-.1-1.76Z" fill="#3C3D66"/><path opacity=".2" d="M83.88 48.91c-.1 1.6-.53 3.15-1.26 4.56-1.97 3.73-6.05 6.42-11.23 7.38-.86.16-1.73.27-2.6.34-3.4.26-7.12-.05-10.7-.35-1.95-.17-3.93-.33-5.86-.4-1.5-.07-3-.05-4.5.05-.52.04-1.03.1-1.5.16-3.25.46-5.31 1.83-6.13 4.07-1.28 3.46.57 8.25 2.98 10.9.9.87 1.89 1.66 2.93 2.37-1.1-1.71-1.63-3.41-1.54-4.9.09-1.5.84-3.43 3.87-4.4 1-.3 2.05-.5 3.1-.57 2.92-.23 6.1.27 9.47.8 3.07.46 6.24.94 9.36.88.44 0 .88-.02 1.3-.05 5.46-.33 9.56-2.3 11.8-5.74 2.44-3.75 2.62-9.07.55-14.98a1.4 1.4 0 0 0-.04-.12Zm-.74-3.38.7 1.63c.24.54.45 1.1.65 1.66 2.16 6.1 1.95 11.6-.6 15.52-2.29 3.52-6.38 5.6-11.81 6.04l-1.4.07c-3.32.08-6.65-.43-9.86-.93-3.34-.52-6.49-1-9.34-.78a13 13 0 0 0-2.96.55c-2.7.86-3.36 2.57-3.44 3.85-.1 1.71.73 3.77 2.36 5.8l1.08 1.34-1.48-.89a25.01 25.01 0 0 1-4.41-3.33c-2.56-2.82-4.48-7.84-3.12-11.55.91-2.47 3.14-3.97 6.62-4.46.5-.07 1.02-.13 1.54-.17 3.28-.25 6.92.05 10.45.35 3.57.3 7.26.6 10.61.35.85-.07 1.7-.18 2.53-.33 5-.93 8.93-3.5 10.8-7.06a10.9 10.9 0 0 0 1.18-5.88l-.1-1.78Z" fill="#3D3E67"/><path opacity=".21" d="M84.07 48.55c-.1 1.61-.54 3.18-1.29 4.6-1.98 3.76-6.12 6.47-11.35 7.43-.87.15-1.74.27-2.62.33-3.43.26-7.18-.06-10.8-.37-1.97-.17-3.97-.34-5.91-.42a39.67 39.67 0 0 0-4.55.05c-.52.04-1.03.1-1.52.16-3.27.46-5.35 1.83-6.19 4.1-1.3 3.5.56 8.33 2.99 11 .91.88 1.9 1.69 2.95 2.4-1.1-1.73-1.64-3.45-1.54-4.95.1-1.5.85-3.46 3.92-4.43 1.02-.31 2.07-.5 3.13-.58 2.94-.22 6.16.28 9.56.82 3.1.47 6.28.96 9.43.91.44 0 .88-.02 1.32-.05 5.51-.32 9.66-2.3 11.94-5.78C86 60 86.2 54.63 84.1 48.66a.64.64 0 0 1-.04-.1Zm-.74-3.42.7 1.66c.24.54.46 1.1.66 1.67 2.17 6.15 1.94 11.71-.64 15.66-2.32 3.55-6.44 5.65-11.94 6.07-.46.04-.93.06-1.4.07-3.35.08-6.71-.44-9.96-.96-3.36-.52-6.54-1.02-9.42-.8-1.01.07-2.01.26-2.98.56-2.74.86-3.4 2.58-3.49 3.87-.1 1.74.73 3.82 2.37 5.86l1.1 1.36-1.5-.9c-1.6-.96-3.1-2.1-4.44-3.38-2.59-2.85-4.51-7.92-3.13-11.66.92-2.49 3.17-4 6.69-4.5.5-.06 1.02-.12 1.56-.16 3.3-.25 6.99.07 10.55.37 3.6.31 7.32.63 10.7.37.87-.06 1.72-.17 2.56-.32 5.05-.93 9.02-3.52 10.91-7.1a11.01 11.01 0 0 0 1.22-5.94l-.12-1.8Z" fill="#3E3F68"/><path opacity=".22" d="M84.25 48.2c-.1 1.61-.54 3.2-1.3 4.63-2.01 3.8-6.19 6.52-11.47 7.48-.87.16-1.76.27-2.64.33-3.47.26-7.25-.07-10.91-.4-1.98-.17-4-.35-5.96-.43a39.82 39.82 0 0 0-4.58.05c-.53.04-1.05.09-1.54.16-3.3.45-5.41 1.84-6.26 4.12-1.31 3.53.55 8.41 3 11.12.92.89 1.92 1.7 2.98 2.42-1.1-1.75-1.65-3.48-1.55-5 .1-1.51.86-3.49 3.96-4.46a13.8 13.8 0 0 1 3.16-.58c2.97-.23 6.21.29 9.64.84 3.12.48 6.33.98 9.5.94.45 0 .9-.02 1.33-.05 5.58-.3 9.77-2.3 12.08-5.8 2.5-3.82 2.7-9.23.6-15.27l-.04-.1Zm-.73-3.46.71 1.67c.24.55.46 1.12.66 1.68 2.17 6.22 1.93 11.83-.68 15.8-2.34 3.59-6.52 5.7-12.06 6.11-.46.04-.94.06-1.42.07-3.38.08-6.77-.46-10.04-.98-3.4-.54-6.6-1.05-9.51-.84-1.02.07-2.04.26-3.01.56-2.77.87-3.45 2.6-3.53 3.9-.11 1.76.73 3.86 2.38 5.92l1.1 1.38-1.5-.91a25.34 25.34 0 0 1-4.49-3.42c-2.6-2.87-4.54-8-3.13-11.77.93-2.51 3.2-4.03 6.76-4.52.5-.07 1.03-.13 1.57-.17 3.34-.24 7.06.08 10.65.4 3.63.32 7.4.65 10.8.4.87-.07 1.74-.18 2.59-.33 5.09-.93 9.1-3.53 11.02-7.15a11.1 11.1 0 0 0 1.24-6l-.11-1.8Z" fill="#3E3F69"/><path opacity=".23" d="M84.44 47.83c-.1 1.64-.56 3.24-1.33 4.68-2.03 3.83-6.25 6.57-11.58 7.53-.89.15-1.78.26-2.67.33-3.5.25-7.32-.09-11.01-.42-2-.18-4.04-.37-6.02-.45a40.28 40.28 0 0 0-4.62.03c-.54.04-1.06.1-1.55.16-3.34.46-5.47 1.85-6.32 4.15-1.33 3.56.53 8.5 3 11.22.93.9 1.93 1.73 3 2.46-1.11-1.77-1.66-3.52-1.56-5.04.1-1.53.88-3.52 4.01-4.5a13.8 13.8 0 0 1 3.19-.58c3-.22 6.27.3 9.74.86 3.13.5 6.36 1 9.56.97.45 0 .9-.02 1.34-.04 5.64-.3 9.88-2.3 12.22-5.85 2.52-3.84 2.74-9.3.64-15.4a5.55 5.55 0 0 1-.04-.1Zm-.74-3.48.72 1.68c.24.56.46 1.13.66 1.7 2.18 6.28 1.93 11.95-.7 15.96-2.39 3.6-6.6 5.73-12.2 6.13-.47.04-.95.06-1.44.07-3.4.07-6.82-.48-10.13-1-3.43-.56-6.66-1.08-9.6-.87-1.02.07-2.04.25-3.03.56-2.8.87-3.48 2.62-3.57 3.93-.1 1.78.74 3.9 2.4 5.98l1.1 1.4-1.51-.93a25.53 25.53 0 0 1-4.52-3.46c-2.62-2.9-4.56-8.08-3.14-11.88.95-2.53 3.25-4.06 6.83-4.55.51-.07 1.05-.13 1.6-.17 3.36-.24 7.11.1 10.74.42 3.66.33 7.45.67 10.9.42.88-.06 1.75-.17 2.61-.32 5.14-.92 9.2-3.55 11.14-7.2a11.22 11.22 0 0 0 1.26-6.04l-.12-1.83Z" fill="#3F406A"/><path opacity=".24" d="M84.63 47.47c-.1 1.65-.57 3.26-1.35 4.72-2.05 3.86-6.32 6.62-11.7 7.58-.9.15-1.8.26-2.7.32-3.53.25-7.38-.1-11.1-.44-2.02-.18-4.07-.37-6.07-.46a40.46 40.46 0 0 0-4.68.02c-.53.04-1.06.1-1.56.16-3.36.46-5.51 1.86-6.39 4.18-1.35 3.59.53 8.58 3.02 11.33.93.91 1.94 1.75 3.02 2.49-1.12-1.79-1.67-3.56-1.56-5.1.1-1.54.89-3.55 4.05-4.53 1.05-.32 2.13-.51 3.22-.58 3.03-.22 6.33.32 9.83.89 3.15.5 6.4 1.02 9.63 1 .45 0 .9-.03 1.34-.05 5.7-.29 10-2.3 12.37-5.87 2.56-3.88 2.78-9.39.68-15.54-.03-.04-.04-.08-.05-.12Zm-.74-3.52.72 1.7c.24.57.46 1.15.67 1.73 2.18 6.34 1.92 12.05-.75 16.1-2.4 3.64-6.66 5.77-12.3 6.17-.48.03-.96.05-1.46.06-3.43.07-6.88-.5-10.22-1.03-3.46-.57-6.73-1.1-9.68-.89-1.04.07-2.08.25-3.07.55-2.82.88-3.52 2.65-3.6 3.97-.13 1.78.72 3.92 2.4 6.03l1.1 1.4-1.52-.93c-1.64-1-3.17-2.17-4.55-3.5-2.65-2.93-4.6-8.16-3.15-12 .96-2.55 3.28-4.1 6.9-4.58.51-.07 1.06-.12 1.6-.16 3.4-.25 7.19.1 10.85.43 3.7.34 7.52.7 11 .44.89-.06 1.76-.16 2.63-.31 5.19-.93 9.29-3.57 11.26-7.25a11.32 11.32 0 0 0 1.28-6.1l-.1-1.83Z" fill="#3F406B"/><path opacity=".26" d="M84.82 47.1a11.77 11.77 0 0 1-1.37 4.77c-2.08 3.89-6.4 6.67-11.82 7.62-.9.16-1.81.27-2.72.33-3.57.24-7.45-.12-11.21-.47-2.03-.18-4.1-.38-6.12-.47a41.2 41.2 0 0 0-4.72.01c-.54.04-1.07.1-1.58.16-3.4.45-5.56 1.87-6.44 4.2-1.37 3.63.52 8.67 3.02 11.44a23.2 23.2 0 0 0 3.05 2.53c-1.13-1.8-1.69-3.6-1.57-5.15.11-1.56.9-3.58 4.1-4.57 1.05-.32 2.14-.51 3.24-.58 3.06-.2 6.39.34 9.91.92 3.18.5 6.46 1.03 9.7 1.02.46 0 .91-.02 1.36-.04 5.76-.28 10.1-2.3 12.51-5.9 2.59-3.91 2.82-9.47.7-15.69a11.7 11.7 0 0 0-.04-.12Zm-.74-3.54.72 1.72c.25.57.47 1.15.67 1.73 2.2 6.4 1.92 12.17-.78 16.25-2.43 3.66-6.72 5.8-12.43 6.2-.47.04-.97.06-1.46.07-3.47.06-6.95-.51-10.32-1.07-3.48-.57-6.78-1.12-9.76-.9-1.05.06-2.1.25-3.1.55-2.84.88-3.55 2.66-3.64 4-.13 1.8.73 3.95 2.41 6.09l1.12 1.42-1.54-.95c-1.66-1-3.2-2.19-4.58-3.53-2.67-2.96-4.63-8.24-3.16-12.12.98-2.57 3.32-4.12 6.97-4.6.52-.08 1.07-.13 1.62-.17 3.43-.24 7.25.12 10.94.46 3.74.35 7.6.7 11.1.47.9-.06 1.78-.17 2.66-.32 5.23-.93 9.38-3.58 11.37-7.29.99-1.84 1.43-3.92 1.3-6.14l-.11-1.87Z" fill="#40416C"/><path opacity=".27" d="M85 46.75a11.9 11.9 0 0 1-1.38 4.8c-2.1 3.92-6.46 6.72-11.94 7.67-.91.16-1.83.27-2.75.33-3.6.24-7.52-.13-11.3-.5-2.06-.19-4.15-.38-6.19-.48a41.01 41.01 0 0 0-4.75 0c-.55.04-1.09.1-1.6.16-3.42.45-5.62 1.87-6.51 4.23-1.39 3.65.5 8.74 3.02 11.55.95.93 1.98 1.78 3.08 2.54-1.14-1.82-1.68-3.63-1.58-5.2.11-1.57.93-3.6 4.15-4.6 1.06-.32 2.16-.51 3.27-.58 3.09-.2 6.45.35 10 .94 3.2.52 6.5 1.06 9.77 1.05.46 0 .92-.02 1.36-.04 5.83-.26 10.23-2.3 12.66-5.94 2.62-3.93 2.87-9.54.74-15.81a1.62 1.62 0 0 1-.04-.12Zm-.73-3.58L85 44.9c.24.58.46 1.17.66 1.76 2.21 6.46 1.92 12.28-.8 16.39-2.47 3.7-6.81 5.85-12.56 6.24-.48.03-.98.05-1.48.06-3.5.06-7-.53-10.4-1.1-3.52-.57-6.84-1.13-9.85-.92-1.07.06-2.12.24-3.13.55-2.87.88-3.59 2.67-3.69 4.02-.13 1.82.73 4 2.43 6.15l1.12 1.44-1.56-.96a25.95 25.95 0 0 1-4.62-3.57c-2.68-3-4.65-8.32-3.16-12.23.98-2.6 3.36-4.16 7.04-4.64.52-.07 1.07-.12 1.63-.16 3.47-.23 7.32.13 11.04.48 3.77.36 7.66.73 11.21.5.9-.07 1.8-.17 2.68-.33 5.28-.92 9.46-3.6 11.48-7.33 1-1.87 1.45-3.95 1.32-6.2l-.1-1.88Z" fill="#41426D"/><path opacity=".28" d="M85.2 46.4a12 12 0 0 1-1.4 4.83c-2.14 3.95-6.54 6.76-12.07 7.72-.92.16-1.84.27-2.77.32-3.63.24-7.58-.14-11.4-.5-2.08-.2-4.19-.41-6.24-.51-1.6-.1-3.2-.1-4.8 0-.55.03-1.1.08-1.6.15-3.47.45-5.68 1.88-6.6 4.26-1.4 3.68.5 8.82 3.04 11.65.96.95 2 1.8 3.1 2.57-1.14-1.84-1.7-3.66-1.58-5.24.11-1.59.93-3.65 4.18-4.64 1.08-.32 2.2-.51 3.31-.58 3.12-.2 6.5.37 10.09.97 3.22.52 6.54 1.07 9.83 1.07.46 0 .92-.02 1.37-.04 5.9-.25 10.34-2.3 12.8-5.97 2.65-3.96 2.91-9.62.78-15.95l-.04-.12Zm-.75-3.63.74 1.76c.24.57.46 1.17.67 1.77 2.21 6.52 1.91 12.4-.85 16.53-2.49 3.72-6.87 5.89-12.67 6.27-.49.04-.98.06-1.5.06-3.53.05-7.07-.54-10.49-1.12-3.55-.6-6.9-1.16-9.94-.95a13.8 13.8 0 0 0-3.16.55c-2.9.88-3.62 2.69-3.72 4.06-.14 1.82.73 4.03 2.44 6.2l1.14 1.45-1.57-.96a26.13 26.13 0 0 1-4.66-3.62c-2.7-3.02-4.67-8.4-3.16-12.34 1-2.62 3.39-4.19 7.1-4.67.54-.07 1.09-.12 1.66-.16 3.5-.23 7.37.14 11.13.5 3.8.38 7.73.75 11.3.52.91-.06 1.81-.16 2.7-.32 5.34-.92 9.56-3.6 11.6-7.38a11.63 11.63 0 0 0 1.35-6.25l-.1-1.9Z" fill="#41426E"/><path opacity=".29" d="M85.38 46.03a12.08 12.08 0 0 1-1.43 4.88c-2.16 3.98-6.6 6.81-12.18 7.77a27 27 0 0 1-2.8.32c-3.66.24-7.65-.16-11.5-.53-2.1-.2-4.22-.42-6.3-.52-1.6-.1-3.22-.1-4.83-.01-.56.03-1.1.09-1.63.15-3.49.45-5.72 1.89-6.64 4.29-1.42 3.71.49 8.9 3.04 11.77.97.95 2.01 1.82 3.12 2.6-1.14-1.86-1.7-3.7-1.58-5.3.12-1.6.95-3.67 4.23-4.67 1.09-.32 2.2-.51 3.34-.58 3.14-.2 6.56.38 10.17 1 3.24.53 6.59 1.08 9.9 1.09.46 0 .93-.01 1.38-.03 5.96-.25 10.45-2.3 12.95-6 2.68-4 2.94-9.71.8-16.1 0-.05-.02-.09-.04-.13Zm-.74-3.65.74 1.77c.24.58.47 1.18.67 1.79 2.23 6.58 1.91 12.5-.88 16.67-2.51 3.75-6.94 5.93-12.8 6.3-.49.04-.99.06-1.5.07-3.56.04-7.13-.57-10.59-1.15-3.57-.6-6.95-1.18-10.02-.98-1.08.06-2.15.24-3.19.55-2.92.89-3.66 2.71-3.76 4.08-.14 1.85.73 4.07 2.45 6.27l1.14 1.47-1.58-.98a26.31 26.31 0 0 1-4.69-3.66c-2.72-3.04-4.7-8.48-3.17-12.45 1-2.64 3.42-4.22 7.18-4.7.53-.07 1.1-.12 1.66-.16 3.53-.23 7.45.16 11.23.53 3.84.38 7.8.76 11.4.53.92-.05 1.83-.16 2.73-.31 5.38-.92 9.65-3.63 11.71-7.43a11.73 11.73 0 0 0 1.37-6.3l-.1-1.91Z" fill="#42436F"/><path opacity=".3" d="M85.57 45.67c-.13 1.73-.62 3.4-1.45 4.92-2.18 4.01-6.67 6.87-12.3 7.82-.93.15-1.87.26-2.82.32-3.7.23-7.72-.17-11.6-.56-2.1-.21-4.26-.42-6.35-.54a42.4 42.4 0 0 0-4.88-.01c-.56.03-1.12.08-1.64.15-3.52.44-5.78 1.9-6.7 4.3-1.45 3.75.46 9 3.04 11.88.97.96 2.02 1.84 3.14 2.63-1.15-1.88-1.71-3.74-1.59-5.35.13-1.61.97-3.7 4.28-4.7 1.1-.33 2.22-.52 3.36-.58 3.17-.2 6.62.39 10.26 1.01 3.27.55 6.63 1.11 9.97 1.12.47 0 .93 0 1.4-.02 6.02-.23 10.56-2.3 13.08-6.04 2.71-4.02 3-9.78.85-16.23l-.05-.12ZM84.83 42l.74 1.78c.24.6.47 1.2.68 1.8 2.24 6.65 1.9 12.63-.92 16.83-2.54 3.78-7.01 5.97-12.92 6.34-.5.03-1 .05-1.52.06-3.59.04-7.19-.58-10.67-1.17-3.61-.62-7.02-1.2-10.11-1.01-1.1.06-2.17.24-3.22.55-2.95.9-3.7 2.73-3.8 4.12-.14 1.85.73 4.1 2.46 6.32l1.15 1.48-1.6-.99a26.63 26.63 0 0 1-4.72-3.7c-2.74-3.07-4.73-8.55-3.18-12.56 1.02-2.66 3.46-4.26 7.25-4.73.54-.07 1.1-.12 1.68-.16 3.56-.22 7.5.17 11.33.55 3.87.4 7.86.79 11.5.56.92-.05 1.84-.15 2.75-.3 5.43-.92 9.74-3.65 11.83-7.48 1.04-1.9 1.5-4.04 1.39-6.36l-.1-1.93Z" fill="#424370"/><path opacity=".31" d="M85.76 45.3a12.32 12.32 0 0 1-1.47 4.98c-2.2 4.04-6.74 6.9-12.42 7.86-.94.15-1.89.26-2.84.32-3.73.23-7.79-.19-11.71-.58a140.2 140.2 0 0 0-6.4-.55c-1.64-.1-3.28-.11-4.92-.03-.57.04-1.12.09-1.65.15-3.56.45-5.84 1.9-6.78 4.34-1.46 3.78.46 9.07 3.06 11.98.97.98 2.03 1.87 3.16 2.66-1.16-1.9-1.72-3.77-1.6-5.4.13-1.62.99-3.73 4.33-4.73 1.1-.33 2.24-.52 3.39-.59 3.2-.2 6.67.4 10.35 1.04a62.9 62.9 0 0 0 10.03 1.15c.47 0 .94-.01 1.4-.03 6.08-.22 10.68-2.3 13.23-6.06 2.75-4.05 3.04-9.87.88-16.38l-.04-.12Zm-.74-3.7.74 1.8c.25.6.48 1.2.68 1.82 2.24 6.7 1.9 12.73-.95 16.96-2.57 3.81-7.08 6.02-13.04 6.38-.5.04-1.01.05-1.53.06-3.63.03-7.26-.6-10.77-1.2-3.64-.63-7.07-1.22-10.2-1.03-1.1.05-2.18.24-3.24.55-2.98.9-3.73 2.74-3.84 4.14-.14 1.88.73 4.14 2.47 6.39l1.16 1.5-1.6-1.01c-1.9-1.2-3.45-2.4-4.77-3.73-2.77-3.1-4.76-8.64-3.2-12.69 1.05-2.68 3.51-4.28 7.33-4.76a27.1 27.1 0 0 1 1.7-.15c3.58-.22 7.57.18 11.42.57 3.9.4 7.93.8 11.6.58.93-.05 1.86-.15 2.78-.3 5.48-.92 9.83-3.67 11.94-7.52a11.93 11.93 0 0 0 1.42-6.42l-.1-1.95Z" fill="#434471"/><path opacity=".33" d="M85.95 44.95a12.4 12.4 0 0 1-1.49 5c-2.24 4.08-6.8 6.96-12.54 7.92-.95.15-1.9.26-2.87.31-3.76.23-7.85-.2-11.8-.6-2.15-.22-4.33-.45-6.45-.56-1.66-.1-3.32-.12-4.97-.03-.57.03-1.13.08-1.67.14-3.58.44-5.88 1.91-6.84 4.37-1.48 3.8.45 9.15 3.06 12.08a23.7 23.7 0 0 0 3.2 2.68c-1.18-1.9-1.74-3.8-1.6-5.44.12-1.64.98-3.76 4.36-4.77 1.11-.33 2.26-.52 3.42-.58 3.23-.19 6.73.42 10.44 1.07 3.3.56 6.73 1.14 10.1 1.17.47 0 .95 0 1.41-.02 6.15-.22 10.79-2.3 13.38-6.1 2.76-4.1 3.07-9.95.9-16.52l-.04-.12Zm-.75-3.75.75 1.82c.25.6.48 1.22.68 1.84 2.26 6.77 1.9 12.84-.98 17.1-2.6 3.85-7.15 6.06-13.16 6.42-.5.03-1.02.05-1.54.05-3.65.03-7.32-.6-10.86-1.22-3.67-.64-7.13-1.25-10.28-1.06-1.1.06-2.2.24-3.27.55-3 .9-3.77 2.77-3.88 4.18-.15 1.89.73 4.18 2.48 6.44l1.17 1.51-1.62-1.01a26.82 26.82 0 0 1-4.8-3.78c-2.78-3.13-4.79-8.72-3.2-12.8 1.06-2.7 3.54-4.31 7.4-4.78a27.3 27.3 0 0 1 1.7-.16c3.63-.21 7.64.2 11.53.6 3.92.4 8 .82 11.7.6a26.7 26.7 0 0 0 2.8-.3c5.53-.92 9.92-3.68 12.05-7.57a12.1 12.1 0 0 0 1.44-6.46l-.1-1.97Z" fill="#444572"/><path opacity=".34" d="M86.14 44.59a12.53 12.53 0 0 1-1.51 5.04c-2.26 4.1-6.88 7-12.66 7.96-.96.16-1.93.26-2.9.31-3.79.22-7.91-.2-11.9-.62-2.16-.23-4.36-.46-6.5-.58-1.68-.11-3.35-.13-5.02-.04-.57.03-1.14.08-1.68.15-3.61.43-5.94 1.91-6.9 4.38-1.5 3.84.43 9.23 3.07 12.2.98 1 2.06 1.9 3.2 2.72-1.17-1.93-1.73-3.84-1.6-5.5.14-1.63 1-3.79 4.41-4.8 1.13-.33 2.29-.52 3.46-.58 3.25-.18 6.78.44 10.52 1.1 3.33.57 6.77 1.15 10.17 1.19.48 0 .95 0 1.42-.02 6.2-.2 10.9-2.3 13.52-6.13 2.8-4.12 3.12-10.03.94-16.66l-.04-.12Zm-.75-3.79.75 1.84c.25.6.48 1.23.69 1.85 2.26 6.83 1.9 12.96-1.02 17.26-2.63 3.87-7.23 6.1-13.28 6.45-.51.03-1.03.04-1.56.05-3.69.02-7.38-.63-10.95-1.27-3.7-.65-7.2-1.26-10.37-1.08-1.12.06-2.23.24-3.3.55-3.03.9-3.8 2.79-3.92 4.2-.16 1.92.73 4.22 2.49 6.51l1.17 1.52-1.62-1.02a26.83 26.83 0 0 1-4.83-3.81c-2.8-3.16-4.82-8.8-3.21-12.91 1.06-2.73 3.57-4.35 7.46-4.82.55-.07 1.13-.12 1.72-.15 3.66-.22 7.71.2 11.63.62 3.97.42 8.06.84 11.8.62.94-.05 1.88-.15 2.82-.3 5.57-.91 10-3.69 12.17-7.6a12.14 12.14 0 0 0 1.45-6.52l-.09-1.98Z" fill="#444573"/><path opacity=".35" d="M86.33 44.23a12.64 12.64 0 0 1-1.54 5.09c-2.28 4.13-6.94 7.05-12.77 8-.97.16-1.94.26-2.92.31-3.82.22-7.98-.22-12-.65-2.18-.23-4.4-.46-6.56-.59a43.95 43.95 0 0 0-5.05-.05c-.58.03-1.15.09-1.7.15-3.64.44-5.99 1.92-6.97 4.41-1.51 3.87.43 9.32 3.09 12.3 1 1.02 2.08 1.93 3.23 2.75-1.18-1.95-1.75-3.88-1.6-5.54.13-1.67 1.01-3.83 4.45-4.84 1.13-.33 2.3-.52 3.48-.58 3.29-.19 6.85.45 10.61 1.12 3.36.58 6.81 1.18 10.23 1.22l1.44-.01c6.27-.19 11.01-2.3 13.66-6.17 2.83-4.15 3.16-10.1.97-16.8a.5.5 0 0 1-.05-.12Zm-.75-3.82.75 1.85c.25.62.48 1.25.7 1.88 2.26 6.89 1.89 13.07-1.06 17.4-2.67 3.9-7.3 6.13-13.4 6.48-.52.03-1.05.05-1.58.05-3.72.02-7.44-.64-11.04-1.28-3.73-.67-7.25-1.3-10.46-1.1-1.12.04-2.24.23-3.33.54-3.05.9-3.84 2.8-3.96 4.23-.16 1.93.73 4.26 2.5 6.57l1.19 1.54-1.64-1.04a26.95 26.95 0 0 1-4.87-3.85c-2.83-3.2-4.84-8.88-3.21-13.03 1.08-2.75 3.61-4.38 7.53-4.85.56-.07 1.14-.12 1.74-.15 3.68-.2 7.77.23 11.72.65 4 .42 8.13.86 11.9.64.95-.05 1.9-.15 2.84-.3 5.63-.92 10.1-3.72 12.29-7.66a12.25 12.25 0 0 0 1.48-6.57l-.09-2Z" fill="#454674"/><path opacity=".36" d="M86.51 43.87c-.14 1.8-.67 3.55-1.55 5.12-2.3 4.17-7 7.1-12.9 8.06-.97.16-1.95.26-2.94.31-3.85.21-8.05-.24-12.1-.67-2.2-.24-4.44-.47-6.62-.61a44.4 44.4 0 0 0-5.1-.06c-.58.03-1.16.08-1.7.14-3.68.44-6.05 1.93-7.04 4.44-1.54 3.9.42 9.39 3.08 12.41 1 1.02 2.1 1.95 3.27 2.78-1.2-1.96-1.77-3.9-1.62-5.6.14-1.67 1.03-3.85 4.5-4.86 1.14-.33 2.32-.53 3.51-.58 3.31-.18 6.9.46 10.7 1.14 3.37.59 6.85 1.2 10.3 1.25.49 0 .97 0 1.44-.02 6.34-.17 11.13-2.3 13.81-6.2 2.86-4.17 3.2-10.18 1-16.93a2.12 2.12 0 0 0-.04-.12Zm-.74-3.85.76 1.87c.25.62.48 1.25.7 1.88 2.27 6.96 1.88 13.19-1.1 17.55-2.69 3.93-7.36 6.18-13.53 6.52-.51.03-1.04.05-1.58.05-3.75 0-7.5-.66-11.13-1.31-3.76-.67-7.31-1.3-10.54-1.13-1.14.05-2.27.23-3.37.55-3.08.9-3.87 2.82-4 4.26-.16 1.94.73 4.3 2.53 6.62l1.19 1.56-1.66-1.05a27.17 27.17 0 0 1-4.9-3.9c-2.85-3.21-4.87-8.96-3.22-13.13 1.09-2.77 3.64-4.41 7.6-4.88.56-.07 1.15-.12 1.76-.15 3.7-.2 7.83.24 11.81.67 4.03.43 8.2.88 12 .67.96-.05 1.92-.15 2.87-.3 5.67-.92 10.2-3.73 12.4-7.71 1.1-1.98 1.6-4.21 1.5-6.62l-.09-2.02Z" fill="#454675"/><path opacity=".37" d="M86.7 43.5a12.84 12.84 0 0 1-1.57 5.18c-2.34 4.2-7.08 7.15-13.01 8.1-.99.15-1.98.26-2.98.3-3.88.22-8.11-.24-12.2-.7-2.22-.23-4.47-.48-6.67-.62-1.71-.11-3.42-.13-5.14-.06-.59.03-1.17.08-1.72.14-3.71.44-6.1 1.94-7.1 4.47-1.56 3.93.4 9.48 3.1 12.52 1 1.03 2.1 1.97 3.28 2.8-1.2-1.99-1.78-3.95-1.63-5.64.15-1.7 1.05-3.89 4.54-4.9 1.16-.33 2.35-.53 3.55-.58 3.34-.18 6.96.47 10.79 1.16 3.4.6 6.9 1.22 10.37 1.28l1.45-.01c6.4-.17 11.24-2.3 13.95-6.23 2.89-4.21 3.25-10.28 1.04-17.08a1.64 1.64 0 0 1-.05-.12Zm-.74-3.87.76 1.88c.25.62.48 1.26.7 1.9 2.29 7.01 1.89 13.3-1.12 17.69-2.71 3.95-7.44 6.22-13.65 6.55-.52.03-1.06.05-1.6.05-3.78 0-7.57-.68-11.22-1.34-3.8-.68-7.37-1.33-10.63-1.15-1.15.05-2.28.23-3.39.54-3.1.92-3.91 2.84-4.04 4.3-.17 1.96.73 4.32 2.52 6.68l1.2 1.57-1.66-1.06c-2-1.29-3.6-2.55-4.94-3.93-2.87-3.25-4.9-9.04-3.22-13.26 1.1-2.79 3.68-4.44 7.67-4.9.56-.06 1.16-.11 1.77-.15 3.74-.2 7.9.25 11.92.7 4.06.43 8.26.9 12.09.7.97-.06 1.94-.16 2.9-.3 5.72-.93 10.28-3.75 12.51-7.76 1.11-2 1.62-4.24 1.52-6.68l-.1-2.03Z" fill="#464776"/><path opacity=".38" d="M86.9 43.15c-.16 1.83-.7 3.6-1.6 5.2-2.36 4.24-7.14 7.2-13.13 8.16-1 .15-2 .26-3 .3-3.92.2-8.18-.26-12.3-.72-2.24-.24-4.51-.5-6.73-.63a45.05 45.05 0 0 0-5.18-.07c-.6.03-1.19.07-1.74.14-3.74.43-6.16 1.94-7.17 4.5-1.58 3.95.4 9.55 3.1 12.62a24.05 24.05 0 0 0 3.3 2.82c-1.2-2-1.77-3.98-1.62-5.69.15-1.68 1.06-3.92 4.59-4.94 1.16-.33 2.36-.52 3.57-.57 3.37-.18 7.02.48 10.88 1.19 3.41.6 6.94 1.23 10.43 1.3.5 0 .98 0 1.46-.02 6.46-.15 11.35-2.29 14.1-6.25 2.91-4.25 3.3-10.36 1.07-17.22l-.04-.12Zm-.75-3.93.76 1.9c.26.64.49 1.28.7 1.93 2.3 7.07 1.89 13.4-1.16 17.83-2.74 3.98-7.5 6.26-13.77 6.59-.52.03-1.06.04-1.61.04-3.81 0-7.63-.7-11.31-1.36-3.82-.7-7.43-1.35-10.72-1.18-1.15.05-2.3.23-3.41.55-3.15.92-3.96 2.86-4.09 4.33-.17 1.97.73 4.36 2.54 6.74l1.2 1.58-1.68-1.07a27.55 27.55 0 0 1-4.97-3.97C35.74 69.85 33.7 64 35.4 59.76c1.12-2.81 3.73-4.47 7.75-4.94.57-.06 1.17-.11 1.78-.14 3.78-.2 7.96.26 12.01.71 4.1.45 8.33.92 12.2.72.98-.05 1.95-.15 2.92-.3 5.77-.92 10.37-3.76 12.63-7.8a12.53 12.53 0 0 0 1.54-6.72l-.07-2.07Z" fill="#474877"/><path opacity=".4" d="M87.08 42.79c-.16 1.84-.7 3.63-1.61 5.25-2.38 4.26-7.22 7.25-13.26 8.2-1 .15-2 .25-3.02.3-3.95.2-8.25-.28-12.4-.74-2.25-.25-4.55-.5-6.78-.66a45.5 45.5 0 0 0-5.22-.07c-.6.03-1.2.07-1.76.14-3.77.43-6.2 1.95-7.23 4.52-1.59 3.99.39 9.64 3.11 12.73 1.02 1.05 2.14 2 3.33 2.86-1.21-2.02-1.79-4.02-1.63-5.75.15-1.7 1.07-3.94 4.63-4.97 1.18-.33 2.39-.53 3.6-.58 3.4-.17 7.08.5 10.97 1.22 3.44.62 6.98 1.25 10.5 1.32h1.47c6.52-.14 11.47-2.3 14.24-6.3 2.94-4.26 3.33-10.43 1.1-17.35l-.04-.12Zm-.75-3.95.77 1.92c.26.64.5 1.29.7 1.94 2.3 7.14 1.88 13.52-1.2 17.98-2.76 4.01-7.57 6.3-13.88 6.62-.54.03-1.08.04-1.63.04-3.84 0-7.69-.7-11.4-1.39-3.86-.7-7.5-1.37-10.8-1.2-1.17.05-2.33.23-3.45.55-3.17.91-3.99 2.87-4.12 4.35-.17 1.99.73 4.4 2.55 6.8l1.21 1.6-1.69-1.09a27.81 27.81 0 0 1-5-4c-2.91-3.31-4.96-9.2-3.25-13.49 1.13-2.83 3.76-4.5 7.82-4.97.57-.06 1.18-.11 1.8-.14 3.8-.19 8.02.28 12.1.74 4.13.46 8.4.94 12.3.74.98-.05 1.97-.15 2.94-.3 5.82-.92 10.46-3.78 12.75-7.85a12.66 12.66 0 0 0 1.57-6.78l-.09-2.07Z" fill="#474878"/><path opacity=".41" d="M87.27 42.43a13.16 13.16 0 0 1-1.64 5.29c-2.41 4.29-7.28 7.3-13.37 8.25-1 .15-2.03.25-3.05.3-3.98.2-8.31-.3-12.5-.77-2.27-.26-4.58-.52-6.83-.67-1.75-.13-3.51-.15-5.27-.08-.6.03-1.2.07-1.76.14-3.8.42-6.26 1.96-7.3 4.55-1.61 4.02.37 9.72 3.11 12.84a24.24 24.24 0 0 0 3.37 2.88c-1.23-2.04-1.8-4.05-1.65-5.79.16-1.71 1.1-3.98 4.68-5a15.8 15.8 0 0 1 3.64-.58c3.43-.17 7.13.51 11.05 1.24 3.46.62 7.03 1.27 10.57 1.34h1.48c6.59-.12 11.58-2.29 14.38-6.32 2.98-4.3 3.38-10.51 1.14-17.5a1.07 1.07 0 0 1-.05-.12Zm-.75-3.99.77 1.94c.26.64.5 1.3.7 1.96 2.32 7.2 1.88 13.63-1.23 18.12-2.8 4.04-7.64 6.34-14.01 6.66-.54.03-1.09.04-1.64.04-3.87-.02-7.75-.73-11.5-1.42-3.88-.72-7.54-1.4-10.88-1.23-1.18.05-2.34.23-3.47.55-3.2.92-4.03 2.89-4.16 4.38-.18 2 .73 4.44 2.56 6.86l1.22 1.61-1.7-1.1a27.84 27.84 0 0 1-5.05-4.05c-2.92-3.34-4.98-9.28-3.25-13.6 1.15-2.85 3.8-4.53 7.89-4.99.58-.06 1.19-.11 1.82-.14 3.83-.19 8.09.3 12.2.76 4.17.47 8.47.96 12.4.76 1-.05 1.98-.14 2.97-.3 5.86-.91 10.55-3.79 12.85-7.88a12.78 12.78 0 0 0 1.6-6.84l-.1-2.09Z" fill="#484979"/><path opacity=".42" d="M87.45 42.07a13.27 13.27 0 0 1-1.65 5.32c-2.44 4.32-7.35 7.35-13.49 8.3-1.02.15-2.04.26-3.07.3-4.02.2-8.38-.3-12.6-.78-2.3-.27-4.62-.53-6.89-.69a45.74 45.74 0 0 0-5.3-.1c-.62.04-1.22.09-1.79.15-3.83.42-6.3 1.96-7.36 4.57-1.63 4.06.36 9.81 3.12 12.95a24.4 24.4 0 0 0 3.38 2.92c-1.23-2.06-1.8-4.1-1.64-5.84.15-1.73 1.1-4.01 4.72-5.05a16 16 0 0 1 3.67-.57c3.45-.17 7.18.53 11.13 1.26 3.48.63 7.07 1.29 10.63 1.37h1.5c6.64-.12 11.69-2.3 14.52-6.36 3-4.33 3.42-10.6 1.17-17.63l-.05-.12Zm-.74-4.02.77 1.95c.26.65.5 1.31.7 1.97 2.33 7.26 1.88 13.75-1.26 18.27-2.82 4.06-7.71 6.38-14.14 6.7-.54.02-1.09.03-1.65.03-3.9-.01-7.8-.74-11.58-1.44-3.91-.73-7.6-1.42-10.98-1.26-1.18.04-2.36.23-3.5.54-3.22.92-4.06 2.91-4.2 4.41-.19 2.02.73 4.48 2.57 6.92l1.23 1.63-1.7-1.1a28.23 28.23 0 0 1-5.09-4.1c-2.94-3.35-5-9.35-3.26-13.7 1.16-2.88 3.84-4.57 7.96-5.03.59-.06 1.2-.11 1.83-.14 3.87-.18 8.16.3 12.3.78 4.2.48 8.53.98 12.5.79 1-.05 2-.14 2.99-.3 5.91-.9 10.65-3.8 12.97-7.93a12.88 12.88 0 0 0 1.61-6.89l-.07-2.1Z" fill="#48497A"/><path opacity=".43" d="M87.64 41.7a13.38 13.38 0 0 1-1.67 5.38c-2.46 4.35-7.42 7.4-13.61 8.34-1.03.16-2.06.26-3.1.3-4.05.2-8.45-.32-12.7-.81-2.3-.27-4.65-.54-6.94-.7a46.56 46.56 0 0 0-5.35-.1c-.62.02-1.22.07-1.8.14-3.86.42-6.36 1.97-7.42 4.6-1.65 4.08.35 9.88 3.13 13.05a24.45 24.45 0 0 0 3.4 2.95c-1.24-2.08-1.82-4.13-1.65-5.89.16-1.76 1.12-4.04 4.76-5.08 1.2-.33 2.45-.52 3.7-.57 3.48-.16 7.24.54 11.22 1.29 3.5.64 7.12 1.3 10.7 1.4h1.5c6.71-.1 11.8-2.3 14.67-6.39 3.04-4.36 3.46-10.67 1.2-17.77l-.04-.13Zm-.75-4.04.78 1.97c.26.65.5 1.32.71 1.98 2.33 7.32 1.88 13.86-1.3 18.42-2.85 4.1-7.78 6.42-14.26 6.72-.54.03-1.1.04-1.66.04-3.94-.02-7.87-.76-11.68-1.47-3.94-.74-7.66-1.44-11.06-1.28-1.19.04-2.38.23-3.53.54-3.24.93-4.1 2.93-4.23 4.45-.2 2.03.72 4.5 2.58 6.97l1.23 1.65-1.72-1.12a27.9 27.9 0 0 1-5.12-4.13c-2.97-3.4-5.04-9.44-3.26-13.82 1.17-2.9 3.87-4.6 8.02-5.06.6-.06 1.21-.11 1.85-.14 3.9-.18 8.22.32 12.4.8 4.23.5 8.6 1 12.59.81 1-.04 2.02-.14 3.02-.3 5.96-.9 10.73-3.81 13.08-7.98a12.96 12.96 0 0 0 1.64-6.94l-.08-2.11Z" fill="#494A7B"/><path opacity=".44" d="M87.83 41.35c-.17 1.9-.75 3.74-1.7 5.4-2.48 4.4-7.49 7.45-13.72 8.4-1.04.15-2.08.25-3.12.3-4.09.18-8.52-.34-12.81-.84-2.32-.27-4.69-.55-7-.71a47 47 0 0 0-5.38-.11c-.62.02-1.23.07-1.81.14-3.9.42-6.42 1.98-7.5 4.62-1.66 4.12.34 9.96 3.14 13.17a24.5 24.5 0 0 0 3.43 2.97c-1.24-2.1-1.82-4.16-1.65-5.94.16-1.75 1.13-4.06 4.8-5.11 1.22-.34 2.47-.53 3.74-.57 3.5-.16 7.3.56 11.3 1.31 3.53.65 7.17 1.33 10.77 1.42.51.02 1.02.02 1.51 0 6.78-.09 11.92-2.29 14.82-6.42 3.06-4.39 3.5-10.75 1.23-17.9l-.05-.13Zm-.75-4.09.79 1.99c.25.66.5 1.33.7 2 2.35 7.39 1.87 13.98-1.33 18.56-2.87 4.13-7.85 6.46-14.38 6.76-.55.03-1.1.04-1.68.04-3.97-.03-7.93-.78-11.77-1.5-3.97-.75-7.72-1.46-11.14-1.3-1.2.04-2.4.22-3.56.54-3.28.93-4.13 2.94-4.28 4.47-.2 2.05.73 4.55 2.6 7.04l1.24 1.65-1.74-1.12a28.16 28.16 0 0 1-5.15-4.17c-2.99-3.42-5.06-9.53-3.27-13.94 1.18-2.92 3.9-4.63 8.1-5.08.59-.07 1.22-.12 1.85-.14 3.94-.18 8.3.33 12.5.82 4.26.5 8.67 1.02 12.7.84 1.01-.05 2.03-.15 3.04-.3 6-.91 10.82-3.84 13.2-8.03a13.07 13.07 0 0 0 1.65-6.99l-.07-2.14Z" fill="#4A4B7C"/><path opacity=".45" d="M88.02 40.99a13.56 13.56 0 0 1-1.71 5.45c-2.52 4.41-7.57 7.5-13.85 8.44-1.05.15-2.1.25-3.15.3-4.12.18-8.59-.35-12.9-.86-2.35-.28-4.73-.56-7.05-.73-1.81-.14-3.62-.18-5.44-.12-.62.03-1.24.07-1.82.14-3.92.42-6.47 1.99-7.55 4.66-1.68 4.14.32 10.04 3.14 13.27 1.06 1.1 2.21 2.1 3.45 3-1.25-2.12-1.83-4.2-1.66-6 .17-1.76 1.15-4.1 4.85-5.14 1.23-.33 2.49-.53 3.76-.57 3.54-.16 7.36.57 11.4 1.34 3.55.66 7.2 1.34 10.83 1.45h1.53c6.83-.07 12.03-2.28 14.95-6.44 3.1-4.43 3.55-10.84 1.27-18.06l-.05-.13Zm-.75-4.12.78 2c.26.67.5 1.35.72 2.02 2.35 7.45 1.86 14.09-1.37 18.7-2.9 4.16-7.93 6.51-14.5 6.8-.56.03-1.13.04-1.7.03-4-.03-8-.79-11.85-1.52-4-.76-7.79-1.48-11.23-1.33-1.22.04-2.42.22-3.6.55-3.3.92-4.16 2.96-4.3 4.5-.2 2.06.72 4.58 2.6 7.09l1.25 1.67-1.75-1.13a28.37 28.37 0 0 1-5.19-4.21c-3-3.45-5.1-9.6-3.28-14.05 1.2-2.94 3.95-4.66 8.17-5.12.6-.06 1.23-.1 1.87-.14 3.96-.17 8.35.35 12.6.85 4.3.51 8.73 1.04 12.79.86 1.02-.05 2.05-.14 3.07-.3 6.06-.9 10.9-3.85 13.3-8.07a13.2 13.2 0 0 0 1.69-7.04l-.07-2.16Z" fill="#4A4B7D"/><path opacity=".47" d="M88.2 40.63a13.7 13.7 0 0 1-1.73 5.49c-2.54 4.45-7.63 7.54-13.96 8.49-1.06.15-2.11.25-3.18.3-4.14.17-8.65-.37-13-.9-2.36-.27-4.77-.56-7.1-.73a47.6 47.6 0 0 0-5.48-.13c-.63.03-1.25.07-1.84.14-3.96.42-6.52 2-7.62 4.69-1.7 4.17.32 10.12 3.15 13.38a24.69 24.69 0 0 0 3.47 3.02c-1.26-2.13-1.84-4.23-1.67-6.03.18-1.79 1.17-4.14 4.9-5.19 1.24-.33 2.51-.53 3.79-.57 3.56-.15 7.41.58 11.49 1.37 3.56.67 7.24 1.35 10.9 1.47l1.53.01c6.9-.07 12.14-2.29 15.1-6.48 3.12-4.46 3.58-10.92 1.3-18.2l-.04-.13Zm-.75-4.15.8 2.02c.26.66.5 1.35.71 2.03 2.36 7.5 1.86 14.2-1.4 18.85-2.94 4.19-8 6.55-14.62 6.83-.56.03-1.13.04-1.7.03-4.04-.04-8.07-.8-11.96-1.55-4.03-.78-7.84-1.5-11.31-1.36-1.23.04-2.44.23-3.62.55-3.33.93-4.2 2.98-4.36 4.53-.2 2.08.73 4.62 2.62 7.15l1.26 1.68-1.77-1.14a28.57 28.57 0 0 1-5.22-4.25c-3.03-3.48-5.12-9.68-3.29-14.16 1.21-2.97 3.98-4.7 8.24-5.15.6-.06 1.24-.1 1.89-.14 3.99-.17 8.41.36 12.7.87 4.32.52 8.8 1.06 12.88.88 1.04-.04 2.07-.13 3.1-.28 6.1-.91 11-3.87 13.42-8.13 1.21-2.11 1.78-4.5 1.7-7.1l-.07-2.16Z" fill="#4B4C7E"/><path opacity=".48" d="M88.4 40.27a13.77 13.77 0 0 1-1.76 5.53c-2.56 4.48-7.7 7.59-14.09 8.54a30.7 30.7 0 0 1-3.2.3c-4.17.17-8.71-.38-13.1-.91-2.37-.29-4.8-.58-7.15-.76-1.84-.15-3.68-.2-5.52-.13-.64.02-1.26.07-1.86.13-3.99.42-6.58 2-7.68 4.71-1.73 4.2.3 10.21 3.16 13.49a24.83 24.83 0 0 0 3.5 3.05c-1.26-2.15-1.85-4.26-1.68-6.08.17-1.8 1.18-4.16 4.94-5.22 1.25-.34 2.53-.53 3.82-.57 3.6-.15 7.47.6 11.58 1.4 3.59.67 7.28 1.37 10.96 1.49.52.02 1.04.02 1.54.01 6.96-.05 12.26-2.29 15.24-6.51 3.16-4.49 3.63-11 1.34-18.33l-.04-.14Zm-.75-4.19.79 2.04c.26.67.5 1.36.72 2.05 2.36 7.57 1.85 14.31-1.44 19-2.96 4.2-8.07 6.58-14.75 6.86-.56.02-1.14.03-1.72.03-4.06-.05-8.12-.83-12.04-1.58-4.06-.79-7.9-1.53-11.4-1.38a15.8 15.8 0 0 0-3.64.54c-3.37.94-4.25 3-4.4 4.56-.2 2.1.73 4.66 2.63 7.21l1.26 1.7-1.78-1.15a28.91 28.91 0 0 1-5.25-4.3c-3.05-3.5-5.15-9.76-3.3-14.27 1.22-2.99 4.02-4.73 8.31-5.18.6-.06 1.25-.1 1.9-.14 4.03-.16 8.48.38 12.8.9 4.35.52 8.86 1.07 12.98.9 1.04-.04 2.08-.13 3.12-.28 6.16-.91 11.1-3.89 13.54-8.17a13.38 13.38 0 0 0 1.72-7.15l-.05-2.19Z" fill="#4B4C7F"/><path opacity=".49" d="M88.59 39.9c-.2 1.97-.8 3.87-1.78 5.58-2.59 4.51-7.77 7.64-14.2 8.58-1.08.16-2.15.26-3.23.3-4.21.17-8.79-.4-13.2-.93-2.4-.3-4.84-.6-7.22-.77-1.84-.16-3.7-.2-5.55-.14-.65.02-1.28.07-1.88.13-4.02.42-6.63 2-7.75 4.73-1.74 4.24.3 10.3 3.17 13.6a24.9 24.9 0 0 0 3.52 3.07c-1.27-2.17-1.86-4.3-1.68-6.13.18-1.81 1.2-4.2 4.99-5.25 1.26-.34 2.55-.53 3.85-.57 3.62-.14 7.52.61 11.66 1.42 3.61.68 7.33 1.4 11.04 1.52.52.02 1.03.02 1.55.02 7.02-.05 12.36-2.3 15.38-6.55 3.19-4.52 3.67-11.08 1.37-18.47l-.04-.13Zm-.76-4.21.8 2.05c.26.68.5 1.38.72 2.07 2.39 7.63 1.86 14.43-1.47 19.14-2.99 4.24-8.13 6.63-14.87 6.9-.56.02-1.14.03-1.73.02-4.1-.04-8.18-.84-12.13-1.6-4.1-.8-7.96-1.54-11.49-1.4-1.24.04-2.47.22-3.67.54-3.39.94-4.28 3.02-4.44 4.6-.21 2.1.73 4.69 2.64 7.26l1.28 1.71-1.8-1.17a28.8 28.8 0 0 1-5.28-4.32c-3.07-3.54-5.19-9.85-3.3-14.4 1.23-3 4.05-4.76 8.37-5.2.61-.07 1.26-.11 1.92-.14 4.05-.17 8.54.38 12.89.91 4.39.54 8.93 1.1 13.08.93 1.05-.04 2.1-.13 3.14-.28 6.2-.91 11.19-3.9 13.66-8.21a13.47 13.47 0 0 0 1.75-7.2l-.07-2.21Z" fill="#4C4D80"/><path opacity=".5" d="M88.77 39.54a14 14 0 0 1-1.8 5.62c-2.6 4.54-7.84 7.69-14.32 8.63a30.9 30.9 0 0 1-3.24.3c-4.25.16-8.86-.41-13.31-.96-2.41-.3-4.87-.6-7.27-.79a48.7 48.7 0 0 0-5.6-.15c-.65.03-1.28.07-1.89.14-4.05.42-6.68 2.01-7.81 4.76-1.77 4.27.28 10.37 3.17 13.7a25 25 0 0 0 3.54 3.11c-1.28-2.18-1.87-4.33-1.68-6.18.19-1.82 1.2-4.23 5.04-5.28 1.26-.35 2.56-.54 3.88-.58 3.64-.14 7.58.63 11.75 1.44 3.63.7 7.37 1.42 11.1 1.55.52.02 1.04.03 1.55.02 7.09-.03 12.49-2.29 15.53-6.58 3.22-4.55 3.72-11.16 1.4-18.61 0-.04-.02-.09-.04-.14Zm-.75-4.24.8 2.07c.26.68.5 1.38.72 2.08 2.39 7.7 1.85 14.54-1.5 19.29-3.02 4.27-8.21 6.66-15 6.93-.56.02-1.15.03-1.74.02-4.12-.05-8.24-.85-12.22-1.63-4.13-.8-8.02-1.57-11.58-1.43-1.25.04-2.49.22-3.7.55-3.41.94-4.32 3.03-4.48 4.62-.21 2.13.73 4.73 2.66 7.33l1.28 1.72-1.8-1.18a28.83 28.83 0 0 1-5.33-4.37c-3.09-3.56-5.2-9.92-3.31-14.5 1.25-3.03 4.09-4.8 8.45-5.24.62-.06 1.26-.1 1.93-.13 4.09-.16 8.61.4 12.99.94 4.42.54 9 1.1 13.18.95 1.06-.04 2.12-.13 3.17-.28 6.25-.91 11.27-3.93 13.77-8.27a13.6 13.6 0 0 0 1.77-7.26l-.06-2.21Z" fill="#4C4E81"/><path opacity=".51" d="M88.96 39.18c-.2 2-.82 3.92-1.82 5.66-2.64 4.57-7.9 7.74-14.45 8.68-1.08.16-2.17.25-3.27.3-4.28.15-8.92-.43-13.4-.99-2.43-.3-4.91-.61-7.32-.8a49.49 49.49 0 0 0-5.64-.16c-.65.03-1.3.07-1.9.13-4.08.41-6.74 2.03-7.88 4.8-1.78 4.3.28 10.45 3.18 13.8a25.14 25.14 0 0 0 3.57 3.14c-1.29-2.2-1.88-4.37-1.7-6.23.2-1.84 1.23-4.25 5.09-5.32a16.9 16.9 0 0 1 3.9-.57c3.68-.14 7.64.64 11.84 1.47 3.66.7 7.43 1.43 11.17 1.57.53.02 1.05.02 1.57.02 7.14.04 12.6-2.29 15.67-6.61 3.25-4.58 3.76-11.24 1.43-18.75 0-.04-.02-.09-.04-.14Zm-.75-4.28L89 37c.27.69.52 1.4.73 2.1 2.4 7.75 1.85 14.65-1.54 19.43-3.04 4.3-8.28 6.7-15.11 6.97-.58.02-1.16.02-1.76.02-4.16-.06-8.3-.88-12.31-1.67-4.16-.81-8.08-1.59-11.66-1.45a16.3 16.3 0 0 0-3.74.55c-3.44.95-4.35 3.05-4.51 4.65-.22 2.15.72 4.76 2.66 7.39l1.29 1.74-1.82-1.2a28.92 28.92 0 0 1-5.36-4.4c-3.1-3.6-5.23-10-3.32-14.62 1.27-3.05 4.13-4.82 8.52-5.27.63-.06 1.28-.1 1.95-.14 4.12-.15 8.68.42 13.09.97 4.45.56 9.06 1.13 13.28.97a30.2 30.2 0 0 0 3.19-.28c6.3-.91 11.36-3.94 13.89-8.3a13.66 13.66 0 0 0 1.79-7.32l-.06-2.23Z" fill="#4D4E81"/><path opacity=".52" d="M89.15 38.82c-.2 2.01-.83 3.95-1.84 5.7-2.66 4.6-7.97 7.79-14.56 8.73-1.1.15-2.2.24-3.3.28-4.31.16-8.99-.43-13.5-1-2.46-.3-4.95-.62-7.38-.81a49.62 49.62 0 0 0-5.69-.17c-.65.03-1.3.07-1.91.13-4.12.41-6.8 2.03-7.95 4.82-1.8 4.33.26 10.53 3.2 13.91a25.2 25.2 0 0 0 3.59 3.18c-1.3-2.23-1.9-4.41-1.7-6.29.19-1.85 1.23-4.28 5.12-5.35 1.29-.34 2.61-.53 3.94-.57 3.7-.14 7.7.65 11.93 1.5 3.67.7 7.46 1.44 11.23 1.6l1.58.02c7.2.05 12.7-2.3 15.82-6.65 3.27-4.6 3.8-11.32 1.46-18.89l-.04-.14Zm-.75-4.31.8 2.1c.27.7.52 1.41.74 2.12 2.4 7.81 1.84 14.76-1.58 19.57-3.08 4.33-8.35 6.75-15.24 7-.57.03-1.17.03-1.77.03-4.18-.07-8.36-.9-12.4-1.7-4.19-.82-8.14-1.6-11.75-1.47-1.27.03-2.53.22-3.76.54-3.46.95-4.39 3.07-4.56 4.68-.22 2.17.73 4.8 2.68 7.45l1.3 1.76-1.83-1.2a29.2 29.2 0 0 1-5.39-4.45c-3.13-3.62-5.26-10.09-3.33-14.74 1.28-3.07 4.17-4.85 8.6-5.3.62-.05 1.28-.1 1.95-.12 4.15-.16 8.74.42 13.19.98 4.49.56 9.13 1.15 13.38 1 1.08-.04 2.15-.14 3.22-.29 6.35-.9 11.46-3.95 14-8.35a13.79 13.79 0 0 0 1.81-7.36l-.06-2.25Z" fill="#4E4F82"/><path opacity=".53" d="M89.34 38.46a14.3 14.3 0 0 1-1.86 5.74c-2.69 4.64-8.04 7.84-14.68 8.78-1.1.15-2.21.24-3.32.28-4.35.15-9.06-.44-13.61-1.02-2.47-.32-4.98-.64-7.43-.83-1.9-.17-3.81-.23-5.73-.18-.66.03-1.3.07-1.92.13-4.15.4-6.85 2.04-8.02 4.84-1.82 4.37.26 10.62 3.2 14.03 1.1 1.18 2.31 2.25 3.61 3.2-1.3-2.25-1.9-4.45-1.7-6.34.2-1.86 1.25-4.31 5.17-5.38 1.3-.35 2.63-.54 3.97-.57 3.73-.13 7.75.67 12.01 1.51 3.7.73 7.51 1.47 11.3 1.63l1.6.03c7.26.06 12.81-2.3 15.95-6.68 3.3-4.64 3.84-11.4 1.5-19.03l-.04-.14Zm-.76-4.34.82 2.12c.26.7.51 1.42.73 2.14 2.41 7.87 1.84 14.87-1.6 19.72-3.11 4.35-8.43 6.78-15.37 7.03-.58.02-1.18.03-1.78.02-4.22-.07-8.43-.9-12.5-1.72-4.21-.84-8.2-1.63-11.83-1.5a16.5 16.5 0 0 0-3.8.55c-3.48.95-4.42 3.08-4.59 4.7-.22 2.18.73 4.85 2.69 7.5l1.3 1.78-1.83-1.21c-2.28-1.52-4-2.94-5.44-4.48-3.15-3.65-5.29-10.17-3.33-14.85 1.29-3.1 4.2-4.89 8.66-5.33.63-.06 1.3-.1 1.98-.13 4.18-.15 8.8.44 13.28 1.01 4.52.57 9.2 1.17 13.48 1.02 1.08-.04 2.16-.13 3.24-.28 6.4-.92 11.54-3.98 14.11-8.4 1.28-2.21 1.9-4.7 1.84-7.43l-.06-2.26Z" fill="#4E4F83"/><path opacity=".55" d="M89.53 38.1c-.21 2.04-.85 4-1.88 5.78-2.72 4.67-8.11 7.88-14.8 8.82-1.11.16-2.23.25-3.35.28-4.38.15-9.12-.45-13.7-1.04-2.49-.32-5.02-.64-7.49-.84a50.56 50.56 0 0 0-5.77-.18c-.67.02-1.32.06-1.94.12-4.18.4-6.9 2.05-8.08 4.87-1.84 4.4.24 10.7 3.2 14.14a25.4 25.4 0 0 0 3.65 3.22c-1.3-2.26-1.9-4.48-1.7-6.38.19-1.88 1.25-4.35 5.2-5.42 1.31-.35 2.65-.54 4-.57 3.76-.13 7.81.68 12.1 1.54 3.72.73 7.55 1.48 11.37 1.65l1.6.03c7.33.07 12.93-2.29 16.1-6.71 3.34-4.67 3.88-11.48 1.54-19.17l-.05-.14Zm-.76-4.38.82 2.14c.27.7.52 1.43.74 2.15 2.42 7.94 1.83 15-1.65 19.86-3.13 4.39-8.49 6.83-15.48 7.08-.59.02-1.19.02-1.8.01-4.25-.07-8.49-.92-12.58-1.74-4.25-.85-8.26-1.65-11.93-1.53-1.29.03-2.57.22-3.81.55-3.52.95-4.47 3.1-4.64 4.74-.23 2.2.73 4.88 2.7 7.56l1.31 1.79-1.85-1.22a29.34 29.34 0 0 1-5.46-4.53c-3.17-3.68-5.33-10.24-3.35-14.97 1.3-3.11 4.24-4.91 8.74-5.35.63-.06 1.3-.1 1.99-.13 4.21-.14 8.87.46 13.38 1.03 4.55.59 9.26 1.2 13.58 1.05 1.09-.04 2.18-.13 3.26-.28 6.44-.91 11.63-3.99 14.23-8.45a14 14 0 0 0 1.85-7.47l-.05-2.29Z" fill="#4F5084"/><path opacity=".56" d="M89.71 37.74a14.53 14.53 0 0 1-1.9 5.82c-2.74 4.7-8.17 7.93-14.92 8.87a32.2 32.2 0 0 1-3.37.28c-4.4.14-9.18-.47-13.8-1.07-2.5-.32-5.05-.65-7.54-.86a50.7 50.7 0 0 0-5.81-.19c-.67.03-1.33.07-1.96.13-4.21.4-6.95 2.05-8.15 4.9-1.85 4.43.23 10.79 3.22 14.24a25.45 25.45 0 0 0 3.66 3.26c-1.32-2.28-1.92-4.51-1.72-6.43.2-1.9 1.28-4.38 5.26-5.46 1.32-.34 2.67-.53 4.03-.57 3.78-.12 7.87.7 12.19 1.57 3.74.74 7.6 1.5 11.43 1.68l1.61.04c7.4.08 13.05-2.3 16.25-6.75 3.36-4.7 3.92-11.55 1.57-19.3a1.6 1.6 0 0 0-.05-.16Zm-.75-4.41.82 2.15c.27.71.52 1.44.74 2.17 2.43 8 1.83 15.1-1.68 20-3.16 4.42-8.56 6.87-15.6 7.11-.6.02-1.2.03-1.82.02-4.28-.08-8.54-.94-12.67-1.77-4.28-.86-8.32-1.68-12-1.56-1.3.04-2.6.22-3.86.55-3.54.96-4.5 3.12-4.67 4.76-.24 2.21.73 4.92 2.7 7.62l1.33 1.8-1.87-1.22c-2.31-1.55-4.06-3-5.5-4.57-3.2-3.7-5.35-10.32-3.35-15.08 1.31-3.13 4.28-4.94 8.8-5.38.64-.06 1.32-.1 2-.13 4.25-.14 8.94.47 13.48 1.06 4.6.6 9.34 1.2 13.68 1.06 1.1-.04 2.2-.13 3.29-.28 6.5-.9 11.73-4 14.35-8.49A14.12 14.12 0 0 0 89 35.63l-.04-2.3Z" fill="#4F5085"/><path opacity=".57" d="M89.9 37.38A14.65 14.65 0 0 1 88 43.24c-2.77 4.73-8.25 7.98-15.05 8.92-1.12.16-2.26.25-3.4.28-4.43.14-9.24-.48-13.9-1.09-2.52-.33-5.08-.66-7.59-.87a51.2 51.2 0 0 0-5.85-.2c-.68.02-1.34.06-1.97.12-4.25.4-7.01 2.06-8.21 4.93-1.88 4.45.22 10.86 3.22 14.35a25.52 25.52 0 0 0 3.68 3.28c-1.32-2.3-1.92-4.55-1.72-6.48.2-1.9 1.3-4.4 5.3-5.49 1.33-.35 2.7-.54 4.07-.57 3.81-.12 7.92.71 12.27 1.6 3.76.74 7.64 1.51 11.5 1.7l1.62.03c7.46.04 13.16-2.29 16.4-6.78 3.39-4.73 3.95-11.63 1.6-19.44l-.06-.15Zm-.75-4.44.83 2.17c.27.71.52 1.45.74 2.18 2.44 8.06 1.83 15.21-1.71 20.15-3.19 4.45-8.63 6.91-15.73 7.15-.6.02-1.2.02-1.82 0-4.32-.08-8.62-.95-12.78-1.79-4.3-.87-8.37-1.7-12.09-1.58-1.31.03-2.61.22-3.88.55-3.57.96-4.53 3.13-4.7 4.8-.25 2.22.72 4.95 2.71 7.67l1.33 1.83-1.87-1.25a29.77 29.77 0 0 1-5.54-4.6c-3.22-3.75-5.38-10.42-3.36-15.2 1.33-3.16 4.31-4.98 8.87-5.42.65-.06 1.33-.1 2.02-.12 4.28-.14 9 .48 13.57 1.08 4.63.6 9.4 1.22 13.78 1.08 1.1-.03 2.21-.12 3.31-.27 6.55-.9 11.82-4.02 14.46-8.54a14.16 14.16 0 0 0 1.9-7.57l-.04-2.32Z" fill="#505186"/><path opacity=".58" d="M90.1 37.02a14.76 14.76 0 0 1-1.94 5.9c-2.8 4.76-8.32 8.03-15.17 8.97-1.13.16-2.27.25-3.42.28-4.47.14-9.32-.5-14-1.12-2.54-.33-5.13-.67-7.65-.89a51.29 51.29 0 0 0-5.9-.2c-.68.02-1.35.06-1.98.12-4.28.4-7.06 2.07-8.27 4.95-1.9 4.48.2 10.95 3.22 14.46a25.74 25.74 0 0 0 3.71 3.31c-1.33-2.31-1.93-4.58-1.72-6.53.2-1.92 1.3-4.44 5.34-5.52 1.34-.35 2.7-.54 4.09-.57 3.84-.12 7.98.72 12.36 1.62 3.78.75 7.68 1.54 11.57 1.72.54.03 1.09.04 1.62.04 7.53.05 13.28-2.28 16.54-6.8 3.42-4.77 4-11.72 1.63-19.6l-.04-.14Zm-.77-4.48.83 2.19c.27.72.53 1.46.75 2.2 2.45 8.12 1.82 15.32-1.75 20.3-3.22 4.47-8.7 6.94-15.85 7.17-.6.02-1.21.02-1.84.01-4.34-.09-8.67-.97-12.85-1.82-4.35-.88-8.44-1.72-12.18-1.6a17 17 0 0 0-3.91.54c-3.6.97-4.57 3.16-4.75 4.83-.24 2.24.72 4.99 2.73 7.74l1.33 1.83-1.88-1.26a29.87 29.87 0 0 1-5.57-4.65c-3.24-3.76-5.4-10.48-3.37-15.3 1.34-3.18 4.35-5.01 8.95-5.44a34 34 0 0 1 2.03-.13c4.3-.14 9.07.5 13.67 1.1 4.66.62 9.47 1.25 13.87 1.11 1.12-.03 2.24-.12 3.35-.27 6.59-.9 11.9-4.03 14.56-8.58a14.3 14.3 0 0 0 1.93-7.63l-.05-2.34Z" fill="#515287"/><path opacity=".59" d="M90.28 36.66c-.23 2.1-.9 4.12-1.96 5.94-2.82 4.8-8.4 8.08-15.28 9.02-1.15.16-2.3.25-3.45.28-4.5.14-9.39-.51-14.1-1.14-2.56-.34-5.16-.68-7.7-.9a51.48 51.48 0 0 0-5.94-.21c-.7.02-1.36.06-2 .12-4.3.4-7.11 2.07-8.34 4.97-1.92 4.52.2 11.03 3.23 14.57a25.7 25.7 0 0 0 3.73 3.34c-1.33-2.33-1.94-4.62-1.73-6.58.22-1.94 1.32-4.47 5.4-5.56 1.34-.35 2.72-.54 4.11-.57 3.87-.11 8.04.74 12.46 1.65 3.8.76 7.72 1.55 11.62 1.74.55.03 1.1.04 1.64.05 7.58.06 13.38-2.29 16.68-6.84 3.45-4.8 4.04-11.8 1.66-19.73l-.03-.15Zm-.76-4.51.83 2.2c.28.73.53 1.48.75 2.22 2.46 8.18 1.82 15.44-1.78 20.44-3.24 4.5-8.77 7-15.97 7.21-.6.02-1.22.02-1.85.01-4.38-.1-8.74-.99-12.95-1.85-4.37-.9-8.5-1.74-12.27-1.63-1.33.03-2.65.21-3.94.55-3.62.96-4.6 3.17-4.79 4.85-.24 2.26.73 5.03 2.75 7.8l1.34 1.85-1.9-1.27a30.1 30.1 0 0 1-5.6-4.69c-3.25-3.8-5.43-10.56-3.37-15.42 1.35-3.2 4.39-5.04 9.01-5.47.66-.06 1.35-.1 2.05-.12 4.34-.13 9.13.5 13.77 1.12 4.69.62 9.54 1.26 13.98 1.13 1.12-.03 2.24-.12 3.36-.27 6.63-.9 12-4.05 14.68-8.62 1.34-2.28 2-4.87 1.94-7.69l-.04-2.35Z" fill="#515288"/><path opacity=".6" d="M90.47 36.3c-.23 2.11-.9 4.15-1.98 5.98-2.85 4.82-8.46 8.12-15.4 9.07-1.15.15-2.31.25-3.47.28-4.54.13-9.46-.53-14.2-1.16-2.58-.35-5.2-.7-7.76-.92a52.58 52.58 0 0 0-5.98-.22 33 33 0 0 0-2.02.12c-4.34.4-7.16 2.08-8.4 5-1.93 4.55.18 11.1 3.24 14.67a25.77 25.77 0 0 0 3.76 3.37c-1.35-2.36-1.97-4.66-1.74-6.63.22-1.95 1.33-4.5 5.44-5.59a18.1 18.1 0 0 1 4.15-.57c3.9-.11 8.09.75 12.53 1.67 3.83.77 7.77 1.57 11.7 1.77.56.03 1.1.04 1.65.05 7.65.07 13.5-2.29 16.82-6.87 3.49-4.82 4.09-11.87 1.7-19.86l-.04-.16Zm-.76-4.55.83 2.23c.28.73.53 1.48.76 2.24 2.46 8.24 1.82 15.55-1.82 20.58-3.28 4.53-8.85 7.03-16.1 7.25h-1.86c-4.4-.1-8.8-1-13.04-1.88-4.4-.91-8.55-1.76-12.35-1.66-1.34.03-2.67.21-3.97.55-3.65.97-4.64 3.2-4.83 4.88-.25 2.28.73 5.07 2.76 7.86l1.35 1.86-1.91-1.27a30.17 30.17 0 0 1-5.64-4.73C30.6 65.84 28.42 59 30.5 54.13c1.36-3.23 4.42-5.08 9.08-5.5.66-.07 1.35-.1 2.06-.13 4.37-.12 9.2.52 13.87 1.15 4.72.63 9.6 1.28 14.08 1.15 1.13-.03 2.26-.11 3.38-.26 6.7-.9 12.1-4.07 14.8-8.68 1.36-2.3 2.02-4.9 1.97-7.73l-.04-2.38Z" fill="#525389"/><path opacity=".62" d="M90.66 35.94a15.05 15.05 0 0 1-2 6.03c-2.87 4.85-8.53 8.18-15.52 9.12-1.16.15-2.33.24-3.5.27-4.57.12-9.53-.54-14.31-1.19-2.59-.35-5.23-.7-7.8-.93-2-.2-4.02-.27-6.03-.23-.7.02-1.38.06-2.03.12-4.37.4-7.22 2.09-8.47 5.03-1.95 4.58.18 11.19 3.25 14.78a25.99 25.99 0 0 0 3.78 3.4c-1.35-2.37-1.96-4.7-1.74-6.68.22-1.96 1.35-4.53 5.48-5.63 1.37-.35 2.77-.54 4.18-.56 3.93-.11 8.15.76 12.63 1.69 3.85.78 7.81 1.6 11.77 1.8.56.03 1.1.04 1.65.05 7.7.09 13.61-2.29 16.97-6.9 3.51-4.86 4.13-11.96 1.73-20.01l-.04-.16Zm-.76-4.58.84 2.24c.28.74.53 1.5.76 2.26 2.47 8.3 1.81 15.66-1.86 20.73-3.3 4.56-8.91 7.07-16.21 7.29h-1.88c-4.44-.1-8.86-1.02-13.13-1.9-4.43-.92-8.61-1.79-12.44-1.69-1.35.03-2.69.2-4 .54-3.67.98-4.67 3.21-4.86 4.92-.26 2.29.72 5.1 2.76 7.92l1.36 1.87-1.92-1.29a30.52 30.52 0 0 1-5.68-4.76c-3.3-3.85-5.49-10.73-3.39-15.65 1.38-3.24 4.46-5.1 9.16-5.53.66-.06 1.36-.1 2.08-.12 4.4-.12 9.26.53 13.96 1.17 4.75.64 9.67 1.3 14.17 1.18 1.14-.03 2.28-.12 3.41-.27 6.74-.92 12.18-4.1 14.92-8.73a14.63 14.63 0 0 0 1.99-7.79l-.04-2.39Z" fill="#52538A"/><path opacity=".63" d="M90.85 35.58c-.24 2.14-.93 4.21-2.02 6.07-2.9 4.88-8.6 8.23-15.64 9.16-1.17.15-2.35.24-3.53.27-4.6.12-9.59-.56-14.4-1.21-2.61-.36-5.27-.72-7.86-.95a53.2 53.2 0 0 0-6.07-.23c-.7.01-1.4.05-2.04.11-4.4.4-7.27 2.1-8.54 5.06-1.97 4.6.17 11.27 3.26 14.89a26.05 26.05 0 0 0 3.8 3.42c-1.36-2.38-1.97-4.72-1.75-6.72.23-1.98 1.37-4.56 5.53-5.66 1.38-.35 2.79-.54 4.2-.57 3.96-.1 8.22.78 12.72 1.72 3.87.8 7.86 1.61 11.84 1.82.56.03 1.12.05 1.66.05 7.78.1 13.73-2.28 17.11-6.93 3.55-4.89 4.17-12.04 1.77-20.15l-.04-.15Zm-.76-4.61.84 2.25c.28.75.53 1.51.76 2.27 2.48 8.36 1.8 15.78-1.9 20.88-3.32 4.58-8.98 7.1-16.33 7.31-.62.02-1.25.02-1.89 0-4.47-.11-8.92-1.04-13.22-1.93-4.46-.93-8.67-1.8-12.53-1.7-1.35.02-2.7.2-4.02.54-3.7.98-4.71 3.22-4.9 4.95-.26 2.3.72 5.13 2.78 7.97l1.36 1.9-1.93-1.31a30.38 30.38 0 0 1-5.72-4.8c-3.31-3.89-5.51-10.81-3.4-15.77 1.4-3.26 4.5-5.13 9.23-5.56.67-.06 1.38-.1 2.1-.12 4.43-.12 9.33.55 14.06 1.2 4.8.64 9.74 1.32 14.28 1.2 1.15-.03 2.3-.12 3.43-.27 6.79-.9 12.27-4.1 15.03-8.77a14.74 14.74 0 0 0 2.01-7.84l-.04-2.4Z" fill="#53548B"/><path opacity=".64" d="M91.03 35.22a15.28 15.28 0 0 1-2.03 6.1c-2.92 4.92-8.67 8.28-15.76 9.22a34.1 34.1 0 0 1-3.55.26c-4.63.12-9.65-.56-14.5-1.23-2.63-.36-5.3-.73-7.92-.96-2.03-.2-4.07-.28-6.11-.24-.7.02-1.4.06-2.06.12-4.43.39-7.32 2.1-8.6 5.08-1.99 4.64.16 11.35 3.27 14.99A26.1 26.1 0 0 0 37.59 72c-1.36-2.4-1.98-4.76-1.75-6.78.23-1.98 1.38-4.59 5.57-5.69 1.39-.35 2.81-.54 4.24-.57 3.98-.1 8.27.8 12.8 1.75 3.9.8 7.9 1.63 11.9 1.85.57.03 1.13.04 1.69.05 7.83.12 13.84-2.28 17.25-6.96 3.58-4.92 4.21-12.12 1.8-20.3-.03-.04-.04-.09-.06-.14Zm-.76-4.64.84 2.27c.28.75.54 1.52.77 2.29 2.49 8.42 1.8 15.88-1.92 21.01-3.37 4.62-9.06 7.16-16.46 7.35-.63.02-1.26.02-1.9 0-4.5-.12-8.99-1.05-13.32-1.96-4.48-.94-8.72-1.82-12.6-1.72-1.37.02-2.73.2-4.06.54-3.73.98-4.75 3.24-4.95 4.97-.26 2.32.73 5.18 2.79 8.04l1.37 1.9-1.94-1.32a30.3 30.3 0 0 1-5.75-4.84c-3.33-3.9-5.54-10.89-3.4-15.88 1.4-3.28 4.53-5.16 9.3-5.59.67-.06 1.38-.1 2.1-.11 4.47-.12 9.39.56 14.16 1.21 4.82.66 9.8 1.34 14.37 1.22 1.16-.02 2.31-.1 3.46-.26 6.84-.9 12.36-4.11 15.15-8.81 1.39-2.34 2.07-5 2.03-7.9l-.04-2.41Z" fill="#54558C"/><path opacity=".65" d="M91.22 34.86A15.39 15.39 0 0 1 89.16 41c-2.94 4.95-8.73 8.33-15.88 9.26a34.6 34.6 0 0 1-3.57.27c-4.67.12-9.72-.58-14.6-1.26-2.65-.36-5.34-.74-7.97-.98a53.5 53.5 0 0 0-6.15-.25c-.72.02-1.41.05-2.08.11-4.46.4-7.37 2.11-8.66 5.11-2 4.68.14 11.44 3.27 15.1a26.24 26.24 0 0 0 3.85 3.49c-1.37-2.43-2-4.8-1.76-6.83.23-2 1.4-4.62 5.62-5.72 1.4-.36 2.83-.54 4.27-.56 4-.1 8.32.8 12.89 1.76 3.91.81 7.94 1.65 11.97 1.88l1.68.06c7.9.12 13.95-2.29 17.4-7 3.6-4.95 4.25-12.2 1.82-20.43l-.04-.15Zm-.76-4.68.84 2.29c.28.75.54 1.53.77 2.3 2.5 8.49 1.8 16-1.96 21.16-3.39 4.64-9.13 7.2-16.58 7.38-.63.02-1.27.02-1.92 0-4.53-.12-9.05-1.07-13.4-1.99-4.52-.94-8.78-1.84-12.7-1.74-1.37.02-2.74.2-4.07.54-3.76.98-4.79 3.26-4.99 5-.27 2.34.73 5.22 2.8 8.1l1.38 1.92-1.96-1.33a30.83 30.83 0 0 1-5.78-4.88c-3.37-3.94-5.57-10.97-3.41-16 1.42-3.3 4.57-5.19 9.36-5.61.68-.06 1.4-.1 2.13-.12 4.49-.1 9.45.58 14.25 1.24 4.86.67 9.87 1.36 14.47 1.25 1.17-.03 2.33-.12 3.49-.26 6.88-.9 12.45-4.14 15.26-8.86 1.4-2.36 2.1-5.03 2.05-7.95l-.03-2.44Z" fill="#54558D"/><path opacity=".66" d="M91.41 34.5a15.5 15.5 0 0 1-2.08 6.18c-2.97 4.98-8.8 8.38-16 9.31-1.19.15-2.39.24-3.6.27-4.7.1-9.78-.6-14.7-1.28a174.3 174.3 0 0 0-8.03-1c-2.05-.2-4.12-.28-6.19-.25-.72.02-1.42.05-2.09.11-4.49.39-7.42 2.12-8.73 5.14-2.02 4.7.14 11.51 3.29 15.2a26.14 26.14 0 0 0 3.87 3.51c-1.38-2.44-2-4.83-1.77-6.87.24-2.02 1.4-4.66 5.66-5.76a18.7 18.7 0 0 1 4.3-.57c4.04-.1 8.38.82 12.98 1.8 3.93.81 7.98 1.66 12.04 1.9.56.03 1.13.04 1.69.05 7.96.14 14.06-2.28 17.54-7.03 3.63-4.97 4.3-12.28 1.86-20.56l-.04-.15Zm-.76-4.71.85 2.3c.28.76.54 1.54.77 2.32 2.5 8.55 1.8 16.11-2 21.3-3.4 4.68-9.19 7.24-16.7 7.43-.63.02-1.27.02-1.93 0-4.56-.12-9.1-1.08-13.5-2.01-4.54-.96-8.84-1.87-12.77-1.78-1.39.02-2.77.2-4.11.55-3.78.98-4.83 3.28-5.03 5.03-.28 2.35.72 5.25 2.8 8.15l1.4 1.94-1.98-1.34a30.85 30.85 0 0 1-5.82-4.93c-3.38-3.96-5.6-11.04-3.42-16.1 1.43-3.33 4.6-5.23 9.44-5.65.68-.06 1.4-.1 2.14-.12 4.52-.1 9.52.59 14.35 1.26 4.89.68 9.94 1.39 14.57 1.28 1.17-.03 2.34-.12 3.5-.26 6.95-.91 12.55-4.15 15.39-8.92a15.03 15.03 0 0 0 2.08-8l-.03-2.45Z" fill="#55568E"/><path opacity=".67" d="M91.6 34.14a15.6 15.6 0 0 1-2.1 6.22c-3 5.01-8.87 8.42-16.11 9.36-1.2.15-2.42.24-3.63.27-4.73.1-9.85-.61-14.8-1.3-2.68-.38-5.41-.77-8.08-1.01-2.07-.21-4.15-.3-6.23-.27-.73.01-1.43.05-2.1.11-4.53.39-7.49 2.12-8.8 5.16-2.05 4.74.12 11.6 3.29 15.32 1.17 1.31 2.48 2.5 3.9 3.54-1.4-2.46-2.02-4.87-1.78-6.92.24-2.03 1.42-4.68 5.7-5.8 1.42-.35 2.87-.54 4.33-.56 4.07-.1 8.44.84 13.07 1.82 3.95.83 8.03 1.68 12.1 1.93l1.7.06c8.03.15 14.18-2.28 17.69-7.06 3.66-5.01 4.34-12.36 1.9-20.71l-.05-.16Zm-.76-4.75.85 2.32c.28.77.54 1.56.77 2.34 2.52 8.61 1.8 16.23-2.02 21.45-3.44 4.7-9.27 7.28-16.83 7.46h-1.94c-4.6-.14-9.17-1.1-13.6-2.04-4.57-.98-8.9-1.9-12.86-1.8-1.4.01-2.78.2-4.13.53-3.81.99-4.86 3.3-5.06 5.07-.28 2.37.72 5.28 2.82 8.2l1.4 1.95-1.99-1.34a30.95 30.95 0 0 1-5.85-4.97c-3.4-4-5.63-11.12-3.43-16.21 1.45-3.36 4.64-5.26 9.5-5.68.7-.06 1.42-.1 2.16-.12 4.56-.1 9.59.6 14.45 1.29 4.92.68 10 1.4 14.67 1.3 1.18-.03 2.36-.12 3.53-.27 6.99-.9 12.63-4.16 15.5-8.95a15.15 15.15 0 0 0 2.1-8.05l-.04-2.48Z" fill="#55568F"/><path opacity=".69" d="M91.79 33.78a15.71 15.71 0 0 1-2.13 6.26c-3.02 5.04-8.93 8.47-16.23 9.4-1.2.16-2.42.25-3.64.27-4.77.1-9.92-.62-14.9-1.32-2.7-.38-5.46-.77-8.13-1.02-2.09-.22-4.19-.31-6.28-.28-.73.01-1.44.05-2.12.1-4.55.4-7.53 2.14-8.86 5.2-2.06 4.76.11 11.67 3.3 15.42a26.5 26.5 0 0 0 3.92 3.57c-1.4-2.48-2.02-4.9-1.77-6.97.24-2.05 1.43-4.72 5.74-5.83 1.43-.36 2.89-.55 4.36-.56 4.1-.1 8.5.85 13.15 1.84 3.98.84 8.08 1.7 12.17 1.95.57.04 1.15.06 1.72.07 8.08.16 14.28-2.28 17.82-7.1 3.7-5.04 4.38-12.44 1.93-20.84a.76.76 0 0 1-.05-.16ZM91.02 29l.86 2.34c.28.77.55 1.56.78 2.35 2.52 8.67 1.8 16.34-2.06 21.6-3.47 4.73-9.34 7.31-16.95 7.49-.64.01-1.3 0-1.97-.01-4.62-.14-9.22-1.12-13.67-2.07-4.61-.98-8.97-1.91-12.96-1.82-1.4.02-2.8.2-4.16.54-3.84 1-4.9 3.32-5.1 5.1-.29 2.37.72 5.32 2.82 8.26l1.4 1.96-2-1.36a30.88 30.88 0 0 1-5.88-5c-3.41-4.03-5.65-11.2-3.43-16.33 1.46-3.37 4.68-5.3 9.58-5.7.7-.07 1.43-.1 2.17-.12 4.59-.1 9.65.61 14.55 1.3 4.95.7 10.07 1.42 14.77 1.32 1.19-.02 2.37-.1 3.55-.25 7.04-.9 12.72-4.18 15.6-9a15.24 15.24 0 0 0 2.13-8.11L91.02 29Z" fill="#565790"/><path opacity=".7" d="M91.97 33.42a15.82 15.82 0 0 1-2.14 6.3c-3.04 5.08-9 8.53-16.35 9.46-1.22.15-2.45.24-3.68.26-4.8.1-9.98-.64-15-1.35-2.72-.39-5.49-.78-8.19-1.04-2.1-.21-4.2-.3-6.32-.28-.73.02-1.45.05-2.13.11-4.59.39-7.59 2.14-8.92 5.22-2.09 4.8.1 11.76 3.3 15.53a26.42 26.42 0 0 0 3.94 3.6c-1.4-2.5-2.03-4.94-1.78-7.03.24-2.05 1.45-4.74 5.8-5.86 1.43-.35 2.9-.54 4.38-.56 4.12-.08 8.55.87 13.24 1.87 4 .84 8.13 1.72 12.24 1.98.58.03 1.15.06 1.72.07 8.15.17 14.4-2.28 17.97-7.13 3.73-5.07 4.42-12.52 1.96-20.98l-.04-.17Zm-.76-4.81.86 2.35c.28.78.55 1.58.78 2.37 2.54 8.73 1.8 16.45-2.1 21.74-3.5 4.77-9.4 7.36-17.07 7.53l-1.97-.01c-4.66-.14-9.29-1.14-13.77-2.1-4.64-1-9.02-1.94-13.04-1.86-1.41.02-2.82.2-4.2.55-3.86.99-4.93 3.33-5.14 5.12-.28 2.4.72 5.36 2.84 8.33l1.42 1.98-2-1.37a31.26 31.26 0 0 1-5.93-5.04c-3.44-4.05-5.69-11.29-3.44-16.45 1.47-3.39 4.71-5.32 9.64-5.73.7-.06 1.44-.1 2.19-.11 4.62-.1 9.71.62 14.64 1.32 4.99.7 10.14 1.44 14.87 1.34 1.2-.02 2.4-.1 3.58-.25 7.08-.9 12.81-4.2 15.72-9.04a15.34 15.34 0 0 0 2.14-8.17l-.02-2.5Z" fill="#575891"/><path opacity=".71" d="M92.16 33.06c-.26 2.24-1 4.4-2.16 6.34-3.07 5.11-9.07 8.58-16.47 9.51-1.23.15-2.46.24-3.7.26-4.83.1-10.05-.65-15.1-1.37-2.74-.4-5.52-.8-8.24-1.05a55.48 55.48 0 0 0-6.37-.3c-.74.02-1.46.06-2.14.11-4.63.39-7.64 2.15-9 5.25-2.1 4.83.1 11.84 3.32 15.64a26.62 26.62 0 0 0 3.96 3.62c-1.4-2.53-2.03-4.98-1.78-7.08.25-2.07 1.46-4.77 5.83-5.9a19.1 19.1 0 0 1 4.43-.56c4.14-.08 8.6.88 13.32 1.9 4.02.85 8.17 1.73 12.3 2l1.74.07c8.2.18 14.51-2.28 18.11-7.16 3.76-5.1 4.47-12.61 2-21.13l-.05-.15Zm-.76-4.85.87 2.37c.28.78.54 1.59.78 2.39 2.54 8.79 1.78 16.56-2.13 21.88-3.53 4.8-9.48 7.4-17.2 7.56-.65.01-1.3 0-1.98-.01-4.69-.15-9.35-1.16-13.86-2.13-4.67-1-9.08-1.96-13.13-1.87-1.42.02-2.84.2-4.22.54-3.9 1-4.97 3.35-5.18 5.15-.3 2.42.72 5.4 2.85 8.39l1.42 2-2.02-1.39a31.57 31.57 0 0 1-5.96-5.08c-3.46-4.07-5.71-11.36-3.44-16.56 1.48-3.41 4.75-5.35 9.71-5.76.7-.06 1.45-.1 2.2-.11 4.65-.1 9.78.64 14.75 1.35 5.01.71 10.2 1.46 14.96 1.36 1.2-.02 2.41-.1 3.6-.25 7.14-.9 12.9-4.21 15.84-9.1 1.46-2.42 2.19-5.19 2.16-8.2l-.02-2.53Z" fill="#575892"/><path opacity=".72" d="M92.36 32.7a16.02 16.02 0 0 1-2.18 6.38c-3.1 5.14-9.15 8.62-16.6 9.55-1.23.16-2.47.24-3.72.26-4.86.1-10.12-.66-15.2-1.4-2.76-.4-5.56-.8-8.3-1.06a55.98 55.98 0 0 0-6.41-.3c-.74.01-1.47.05-2.16.1-4.65.38-7.7 2.16-9.05 5.28-2.13 4.85.07 11.92 3.31 15.75a26.84 26.84 0 0 0 4 3.65c-1.43-2.53-2.06-5-1.8-7.12.25-2.09 1.48-4.8 5.88-5.93 1.46-.36 2.95-.55 4.45-.56 4.18-.08 8.67.9 13.42 1.92 4.04.86 8.2 1.75 12.37 2.02.58.04 1.16.07 1.74.08 8.27.2 14.63-2.28 18.26-7.2 3.78-5.12 4.5-12.67 2.03-21.26l-.04-.16Zm-.77-4.88.87 2.38c.28.8.56 1.6.79 2.4 2.55 8.86 1.78 16.68-2.17 22.04-3.56 4.82-9.55 7.44-17.32 7.6-.65.01-1.32 0-2-.01-4.72-.16-9.4-1.17-13.95-2.15-4.7-1.02-9.14-1.98-13.2-1.9-1.44.01-2.87.2-4.26.54-3.92 1-5 3.37-5.23 5.18-.3 2.43.73 5.43 2.87 8.45l1.43 2-2.04-1.39a31.45 31.45 0 0 1-6-5.12c-3.47-4.11-5.74-11.45-3.45-16.67 1.5-3.44 4.8-5.39 9.79-5.8.7-.06 1.45-.1 2.21-.1 4.68-.1 9.85.65 14.84 1.36 5.05.73 10.28 1.48 15.07 1.4 1.21-.03 2.42-.11 3.63-.26 7.17-.9 12.99-4.23 15.95-9.14a15.54 15.54 0 0 0 2.18-8.26v-2.55Z" fill="#585993"/><path opacity=".73" d="M92.54 32.34a16.14 16.14 0 0 1-2.2 6.42c-3.13 5.17-9.22 8.67-16.72 9.61-1.24.15-2.49.24-3.74.26-4.9.08-10.19-.68-15.3-1.42-2.78-.4-5.6-.81-8.35-1.08a56.1 56.1 0 0 0-6.45-.31c-.75.01-1.48.05-2.17.1-4.68.38-7.75 2.17-9.12 5.3-2.14 4.9.06 12 3.32 15.86 1.21 1.36 2.56 2.6 4.02 3.68-1.43-2.55-2.06-5.04-1.8-7.17.25-2.1 1.49-4.84 5.92-5.96 1.47-.36 2.98-.55 4.49-.56 4.2-.08 8.72.9 13.5 1.94 4.06.87 8.25 1.77 12.43 2.05.59.04 1.18.06 1.76.08 8.33.21 14.74-2.28 18.4-7.23 3.81-5.16 4.54-12.76 2.06-21.4l-.05-.17Zm-.77-4.91.88 2.4c.29.8.55 1.61.79 2.42 2.56 8.92 1.78 16.8-2.2 22.18-3.58 4.84-9.62 7.48-17.44 7.62-.65.02-1.32.01-2.01-.01-4.75-.16-9.47-1.19-14.04-2.18-4.73-1.03-9.2-2-13.3-1.92-1.44.01-2.88.19-4.28.54-3.95 1-5.04 3.39-5.27 5.2-.3 2.46.73 5.47 2.88 8.51l1.44 2.03-2.05-1.4a31.31 31.31 0 0 1-6.02-5.17c-3.5-4.14-5.77-11.52-3.47-16.79 1.51-3.46 4.83-5.42 9.86-5.82.71-.06 1.46-.1 2.23-.1 4.71-.1 9.91.66 14.94 1.4 5.08.73 10.34 1.49 15.16 1.4 1.22-.02 2.44-.1 3.66-.25 7.22-.9 13.08-4.24 16.06-9.18a15.66 15.66 0 0 0 2.21-8.32l-.03-2.56Z" fill="#585994"/><path opacity=".74" d="M92.73 31.98a16.25 16.25 0 0 1-2.23 6.46c-3.14 5.2-9.28 8.72-16.83 9.65-1.25.15-2.5.24-3.77.26-4.93.08-10.25-.7-15.4-1.45-2.8-.4-5.64-.81-8.41-1.09a56.87 56.87 0 0 0-6.5-.31c-.75 0-1.48.04-2.18.1-4.71.38-7.8 2.17-9.19 5.32-2.15 4.92.06 12.09 3.34 15.97a26.88 26.88 0 0 0 4.03 3.71c-1.43-2.57-2.06-5.08-1.8-7.22.26-2.11 1.5-4.87 5.97-6 1.48-.36 3-.55 4.51-.56 4.23-.07 8.78.92 13.6 1.96 4.08.89 8.29 1.8 12.5 2.08.58.04 1.17.07 1.76.08 8.4.23 14.85-2.28 18.54-7.25 3.85-5.2 4.59-12.85 2.1-21.55l-.04-.16Zm-.77-4.95.88 2.43c.29.8.56 1.62.79 2.44 2.57 8.97 1.78 16.9-2.24 22.32-3.61 4.87-9.69 7.52-17.56 7.66-.66 0-1.34 0-2.03-.02-4.78-.17-9.53-1.2-14.13-2.2-4.76-1.04-9.25-2.03-13.38-1.95-1.45 0-2.9.19-4.31.54-3.98 1-5.08 3.4-5.3 5.24-.3 2.46.72 5.5 2.88 8.56L39 74.1l-2.05-1.42a31.95 31.95 0 0 1-6.07-5.2c-3.52-4.16-5.8-11.6-3.47-16.9 1.52-3.48 4.86-5.45 9.93-5.85.72-.06 1.47-.1 2.24-.11 4.74-.08 9.97.68 15.03 1.42 5.12.74 10.41 1.51 15.27 1.43 1.23-.02 2.46-.1 3.68-.25 7.28-.9 13.17-4.26 16.18-9.22 1.5-2.48 2.25-5.3 2.23-8.38v-2.58Z" fill="#595A95"/><path opacity=".76" d="M92.92 31.62a16.34 16.34 0 0 1-2.24 6.5c-3.18 5.23-9.35 8.77-16.95 9.7-1.26.15-2.53.23-3.8.25-4.96.08-10.32-.7-15.5-1.46-2.81-.41-5.67-.83-8.46-1.11a57 57 0 0 0-6.54-.33c-.75.02-1.5.05-2.2.1-4.74.38-7.85 2.18-9.24 5.36-2.18 4.95.04 12.17 3.33 16.07a27.02 27.02 0 0 0 4.07 3.74c-1.45-2.59-2.09-5.12-1.82-7.27.26-2.13 1.52-4.9 6.01-6.03 1.5-.36 3.02-.55 4.55-.56 4.26-.06 8.82.94 13.67 2 4.11.89 8.34 1.8 12.58 2.1.59.04 1.18.07 1.77.08 8.46.24 14.96-2.28 18.69-7.28 3.87-5.22 4.62-12.92 2.12-21.68l-.04-.18Zm-.77-4.98.88 2.44c.3.8.56 1.63.8 2.45C96.4 40.57 95.6 48.55 91.56 54c-3.65 4.9-9.76 7.56-17.68 7.7-.67 0-1.35 0-2.04-.03-4.82-.17-9.6-1.22-14.23-2.23-4.79-1.05-9.31-2.04-13.47-1.97-1.46 0-2.92.18-4.34.53-4 1.01-5.12 3.43-5.35 5.28-.3 2.48.73 5.54 2.9 8.62l1.46 2.05-2.07-1.42a31.89 31.89 0 0 1-6.1-5.25C27.1 63.1 24.8 55.6 27.16 50.27c1.54-3.5 4.9-5.48 10-5.89.72-.05 1.48-.09 2.26-.1 4.77-.08 10.04.7 15.13 1.44 5.15.76 10.47 1.54 15.36 1.46 1.24-.02 2.47-.1 3.7-.25 7.33-.9 13.26-4.28 16.3-9.27 1.5-2.5 2.26-5.33 2.25-8.43v-2.59Z" fill="#5A5B96"/><path opacity=".77" d="M93.1 31.26a16.43 16.43 0 0 1-2.26 6.54c-3.2 5.26-9.42 8.82-17.07 9.75-1.27.15-2.54.23-3.82.25-5 .08-10.39-.72-15.6-1.49-2.83-.42-5.7-.84-8.52-1.12a56.84 56.84 0 0 0-6.57-.33c-.76 0-1.5.04-2.21.1-4.78.37-7.91 2.18-9.32 5.38-2.2 4.98.03 12.24 3.35 16.18 1.23 1.39 2.6 2.65 4.08 3.76-1.44-2.6-2.08-5.15-1.82-7.32.27-2.14 1.54-4.92 6.06-6.06a19.8 19.8 0 0 1 4.57-.56c4.3-.07 8.9.94 13.77 2.01 4.13.9 8.38 1.83 12.64 2.13l1.78.09c8.52.25 15.08-2.28 18.83-7.32 3.9-5.26 4.67-13 2.16-21.83l-.05-.16Zm-.76-5.01.88 2.45c.3.81.56 1.64.8 2.47 2.59 9.1 1.77 17.13-2.3 22.61-3.67 4.93-9.84 7.6-17.8 7.73-.68.01-1.37 0-2.06-.02-4.84-.18-9.66-1.24-14.31-2.26-4.82-1.06-9.38-2.06-13.56-2-1.47.01-2.94.2-4.37.54-4.03 1.01-5.15 3.44-5.38 5.3-.31 2.5.72 5.58 2.9 8.69l1.47 2.07-2.08-1.44a32.19 32.19 0 0 1-6.14-5.28c-3.56-4.23-5.85-11.77-3.49-17.13 1.55-3.53 4.94-5.52 10.07-5.92.73-.05 1.5-.09 2.27-.1 4.81-.08 10.1.7 15.23 1.46 5.19.77 10.55 1.56 15.47 1.48 1.24-.01 2.49-.1 3.72-.24 7.37-.9 13.36-4.3 16.4-9.32a15.97 15.97 0 0 0 2.29-8.48l-.01-2.61Z" fill="#5A5B97"/><path opacity=".78" d="M93.3 30.9a16.57 16.57 0 0 1-2.3 6.58c-3.21 5.3-9.48 8.87-17.18 9.8-1.28.15-2.56.23-3.85.25-5.02.07-10.45-.73-15.7-1.51-2.84-.42-5.74-.85-8.57-1.14-2.2-.24-4.4-.35-6.62-.34-.76.01-1.51.05-2.23.1-4.8.37-7.95 2.19-9.38 5.4-2.21 5.02.02 12.33 3.36 16.3a27.23 27.23 0 0 0 4.1 3.79c-1.45-2.63-2.1-5.19-1.81-7.38.27-2.15 1.54-4.95 6.1-6.1 1.5-.36 3.05-.55 4.6-.56 4.32-.06 8.95.97 13.86 2.05 4.15.9 8.42 1.84 12.7 2.15l1.8.1c8.58.27 15.18-2.29 18.97-7.36 3.93-5.28 4.7-13.09 2.19-21.96l-.05-.17Zm-.78-5.05.9 2.47c.29.82.55 1.66.8 2.5 2.59 9.15 1.76 17.23-2.35 22.75-3.69 4.96-9.9 7.64-17.92 7.76-.68.01-1.37 0-2.07-.02-4.87-.18-9.72-1.25-14.4-2.29-4.85-1.07-9.43-2.08-13.64-2.02-1.48 0-2.96.19-4.4.54-4.06 1.01-5.18 3.46-5.42 5.33-.32 2.51.72 5.61 2.92 8.74l1.47 2.08-2.1-1.45a31.92 31.92 0 0 1-6.18-5.32c-3.58-4.25-5.88-11.85-3.5-17.24 1.57-3.55 4.98-5.55 10.15-5.95.73-.05 1.5-.09 2.29-.1 4.83-.07 10.16.72 15.32 1.49 5.22.77 10.61 1.57 15.56 1.5 1.26-.02 2.5-.1 3.75-.24 7.43-.9 13.45-4.31 16.53-9.37 1.53-2.52 2.3-5.4 2.3-8.53v-2.63Z" fill="#5B5C98"/><path opacity=".79" d="M93.48 30.54a16.66 16.66 0 0 1-2.3 6.62c-3.25 5.33-9.56 8.92-17.31 9.85-1.29.15-2.58.23-3.87.24-5.06.07-10.52-.75-15.8-1.53-2.87-.43-5.78-.87-8.63-1.16a58.1 58.1 0 0 0-6.66-.34c-.77 0-1.53.04-2.24.1-4.84.36-8.01 2.2-9.45 5.43-2.23 5.04.02 12.4 3.37 16.39a27.36 27.36 0 0 0 4.13 3.82c-1.46-2.64-2.1-5.22-1.82-7.42.28-2.17 1.56-5 6.15-6.14 1.51-.37 3.07-.55 4.63-.56 4.34-.06 9 .98 13.94 2.07 4.17.92 8.47 1.86 12.77 2.18l1.8.09c8.65.29 15.3-2.28 19.12-7.39 3.96-5.3 4.75-13.16 2.23-22.1-.03-.04-.04-.1-.06-.15Zm-.77-5.08.9 2.49c.29.82.55 1.66.8 2.5 2.6 9.22 1.76 17.35-2.38 22.9-3.72 4.99-9.97 7.68-18.05 7.8-.68 0-1.37 0-2.07-.03-4.9-.18-9.78-1.26-14.5-2.3-4.88-1.1-9.5-2.11-13.73-2.06-1.49.01-2.97.2-4.42.54-4.08 1.02-5.22 3.48-5.46 5.36-.32 2.53.72 5.66 2.93 8.8l1.48 2.1-2.1-1.46a32.27 32.27 0 0 1-6.21-5.36c-3.6-4.28-5.91-11.93-3.5-17.36 1.57-3.56 5-5.57 10.2-5.97.74-.06 1.52-.09 2.31-.1 4.87-.07 10.23.73 15.43 1.5 5.24.79 10.66 1.6 15.65 1.53 1.26-.01 2.52-.1 3.77-.24 7.47-.9 13.53-4.33 16.64-9.41a16.22 16.22 0 0 0 2.32-8.59v-2.64Z" fill="#5B5C99"/><path opacity=".8" d="M93.67 30.18a16.77 16.77 0 0 1-2.33 6.66c-3.27 5.36-9.62 8.97-17.42 9.9-1.3.14-2.6.23-3.9.24-5.09.06-10.58-.76-15.9-1.55-2.88-.43-5.82-.87-8.68-1.17a58.92 58.92 0 0 0-6.7-.35c-.78 0-1.54.04-2.26.1-4.87.36-8.07 2.2-9.51 5.46-2.26 5.07 0 12.5 3.37 16.5a27.27 27.27 0 0 0 4.15 3.85c-1.47-2.66-2.11-5.25-1.83-7.47.28-2.18 1.58-5.02 6.2-6.16 1.52-.37 3.08-.56 4.66-.56 4.37-.06 9.06.99 14.02 2.1 4.2.92 8.52 1.87 12.84 2.2l1.81.1c8.71.3 15.42-2.29 19.26-7.43 4-5.34 4.8-13.24 2.26-22.24l-.04-.18Zm-.77-5.11.9 2.5c.3.83.56 1.68.8 2.52 2.62 9.28 1.76 17.46-2.4 23.04-3.76 5.02-10.05 7.73-18.18 7.84-.68 0-1.38 0-2.09-.03-4.94-.2-9.84-1.28-14.58-2.34-4.92-1.1-9.56-2.13-13.82-2.07-1.5 0-3 .18-4.45.53-4.12 1.03-5.27 3.5-5.5 5.4-.33 2.54.72 5.69 2.94 8.85L38 73.43l-2.12-1.47a32.42 32.42 0 0 1-6.24-5.4c-3.62-4.31-5.94-12.01-3.5-17.48 1.59-3.58 5.04-5.6 10.28-6 .74-.06 1.52-.09 2.31-.1 4.9-.06 10.3.75 15.53 1.53 5.28.8 10.74 1.62 15.76 1.54a36.1 36.1 0 0 0 3.8-.24c7.51-.89 13.62-4.34 16.75-9.45a16.28 16.28 0 0 0 2.34-8.64l-.01-2.65Z" fill="#5C5D9A"/><path opacity=".81" d="M93.86 29.82c-.3 2.37-1.1 4.66-2.34 6.7-3.3 5.4-9.7 9.01-17.55 9.95-1.3.15-2.61.23-3.92.24-5.12.06-10.66-.77-16-1.58-2.9-.44-5.85-.88-8.73-1.18-2.25-.25-4.5-.38-6.76-.37-.78 0-1.54.04-2.27.1-4.9.36-8.13 2.2-9.58 5.48-2.27 5.1-.01 12.58 3.38 16.61a27.22 27.22 0 0 0 4.18 3.88c-1.48-2.68-2.12-5.29-1.84-7.52.28-2.19 1.6-5.04 6.24-6.2 1.54-.37 3.11-.55 4.7-.56 4.4-.05 9.11 1 14.1 2.12 4.22.94 8.56 1.9 12.91 2.23.61.05 1.22.08 1.82.1 8.78.31 15.53-2.28 19.4-7.45 4.03-5.38 4.85-13.33 2.3-22.38l-.04-.17Zm-.77-5.15.9 2.52c.3.84.57 1.68.8 2.54 2.63 9.35 1.76 17.58-2.44 23.19-3.78 5.04-10.1 7.76-18.29 7.87-.69 0-1.39 0-2.1-.03-4.97-.2-9.9-1.3-14.68-2.37-4.94-1.1-9.6-2.15-13.9-2.1-1.5 0-3.01.18-4.48.54-4.14 1.02-5.3 3.51-5.55 5.42-.32 2.56.73 5.72 2.96 8.91l1.5 2.13-2.14-1.48a32.57 32.57 0 0 1-6.28-5.44c-3.64-4.34-5.96-12.09-3.52-17.59 1.6-3.6 5.1-5.64 10.36-6.03a36.4 36.4 0 0 1 2.33-.1c4.93-.06 10.36.76 15.62 1.56 5.31.8 10.8 1.64 15.85 1.57a36.2 36.2 0 0 0 3.83-.24c7.56-.9 13.71-4.36 16.86-9.5a16.37 16.37 0 0 0 2.37-8.69v-2.68Z" fill="#5D5E9B"/><path opacity=".83" d="M94.04 29.46c-.3 2.39-1.1 4.69-2.37 6.74-3.32 5.42-9.76 9.07-17.66 10-1.31.14-2.63.22-3.95.23-5.15.06-10.72-.78-16.1-1.6-2.92-.44-5.9-.9-8.8-1.2a58.84 58.84 0 0 0-6.78-.37c-.79.01-1.56.04-2.29.1-4.93.36-8.17 2.22-9.64 5.5-2.29 5.15-.02 12.67 3.39 16.73a27.62 27.62 0 0 0 4.2 3.9c-1.48-2.7-2.13-5.32-1.84-7.56.28-2.2 1.6-5.08 6.28-6.23 1.55-.37 3.13-.56 4.72-.56 4.43-.05 9.18 1.01 14.2 2.14 4.24.95 8.6 1.92 12.98 2.25.6.05 1.22.09 1.83.1 8.84.32 15.65-2.28 19.56-7.48 4.05-5.4 4.88-13.4 2.32-22.52a1.2 1.2 0 0 0-.05-.17Zm-.77-5.19.9 2.55c.3.84.58 1.7.82 2.55 2.63 9.4 1.75 17.7-2.48 23.33-3.8 5.08-10.18 7.8-18.41 7.9-.7.01-1.4 0-2.12-.02-5-.2-9.96-1.32-14.77-2.4-4.97-1.12-9.66-2.17-13.98-2.12-1.52 0-3.04.18-4.52.54-4.16 1.02-5.33 3.53-5.58 5.45-.33 2.57.72 5.76 2.97 8.97l1.5 2.15-2.15-1.5a32.81 32.81 0 0 1-6.31-5.48c-3.66-4.37-5.99-12.17-3.53-17.7 1.62-3.63 5.13-5.67 10.43-6.06.75-.06 1.54-.1 2.34-.1 4.96-.06 10.43.77 15.72 1.58 5.35.8 10.88 1.65 15.96 1.6 1.28-.02 2.57-.1 3.85-.24 7.61-.9 13.8-4.38 16.98-9.55a16.46 16.46 0 0 0 2.38-8.75v-2.7Z" fill="#5D5E9C"/><path opacity=".84" d="M94.23 29.1a17.1 17.1 0 0 1-2.38 6.78c-3.35 5.45-9.83 9.1-17.78 10.04-1.32.15-2.65.23-3.97.24-5.19.05-10.79-.8-16.2-1.63-2.94-.45-5.93-.9-8.84-1.21a59.64 59.64 0 0 0-6.83-.38c-.8.01-1.57.04-2.3.1-4.97.36-8.23 2.22-9.71 5.53-2.31 5.17-.04 12.74 3.39 16.83a27.63 27.63 0 0 0 4.23 3.94c-1.5-2.72-2.15-5.37-1.85-7.62.28-2.22 1.62-5.1 6.32-6.27 1.56-.37 3.16-.56 4.76-.56 4.45-.05 9.23 1.03 14.29 2.17 4.26.95 8.64 1.94 13.04 2.28.6.05 1.22.08 1.84.1 8.9.34 15.75-2.27 19.69-7.51 4.08-5.44 4.92-13.49 2.36-22.66a2.65 2.65 0 0 1-.06-.17Zm-.77-5.22.91 2.56c.3.84.57 1.7.81 2.57 2.64 9.47 1.75 17.8-2.5 23.48-3.84 5.1-10.26 7.84-18.55 7.94-.7 0-1.4 0-2.13-.04-5.03-.2-10.02-1.33-14.85-2.42-5-1.12-9.73-2.19-14.08-2.15-1.53 0-3.05.19-4.54.54-4.2 1.03-5.37 3.55-5.62 5.48-.34 2.6.72 5.8 2.98 9.03l1.5 2.16-2.15-1.5A32.81 32.81 0 0 1 28.89 66c-3.68-4.4-6.03-12.25-3.53-17.82 1.63-3.65 5.16-5.7 10.49-6.09.75-.05 1.55-.09 2.36-.1 5-.05 10.5.8 15.82 1.6 5.38.83 10.94 1.68 16.05 1.62 1.3 0 2.59-.08 3.87-.23 7.67-.9 13.9-4.4 17.1-9.6 1.59-2.6 2.4-5.55 2.4-8.8l.01-2.7Z" fill="#5E5F9D"/><path opacity=".85" d="M94.42 28.74a17.18 17.18 0 0 1-2.4 6.82c-3.38 5.49-9.9 9.16-17.9 10.09-1.33.15-2.67.23-4 .24-5.22.05-10.86-.82-16.31-1.65-2.95-.46-5.95-.92-8.89-1.23a59.8 59.8 0 0 0-6.87-.39c-.8.01-1.57.04-2.31.1-5 .36-8.28 2.24-9.77 5.56-2.33 5.2-.05 12.82 3.4 16.94a27.82 27.82 0 0 0 4.24 3.96c-1.5-2.74-2.15-5.4-1.86-7.67.3-2.23 1.64-5.14 6.38-6.3 1.56-.37 3.17-.56 4.78-.56 4.48-.04 9.29 1.04 14.38 2.2 4.28.96 8.68 1.95 13.1 2.3.62.05 1.24.08 1.85.1 8.97.35 15.87-2.27 19.84-7.54 4.11-5.47 4.96-13.57 2.4-22.8l-.06-.17Zm-.77-5.25.91 2.57c.3.85.58 1.72.82 2.6 2.65 9.52 1.74 17.9-2.55 23.61-3.86 5.14-10.32 7.89-18.66 7.97-.7.01-1.42 0-2.14-.03-5.07-.21-10.09-1.35-14.95-2.45-5.03-1.14-9.79-2.21-14.16-2.17-1.54 0-3.07.18-4.57.54-4.22 1.03-5.4 3.56-5.66 5.5-.34 2.61.72 5.84 2.99 9.1l1.51 2.17-2.17-1.52a32.9 32.9 0 0 1-6.38-5.56c-3.7-4.42-6.05-12.33-3.54-17.93 1.64-3.67 5.2-5.73 10.56-6.12.76-.05 1.56-.09 2.38-.1 5.03-.04 10.56.8 15.92 1.63 5.41.83 11 1.69 16.15 1.64 1.3 0 2.6-.08 3.9-.23 7.7-.89 13.98-4.4 17.2-9.64a16.7 16.7 0 0 0 2.44-8.85v-2.73Z" fill="#5E5F9E"/><path opacity=".86" d="M94.61 28.38a17.32 17.32 0 0 1-2.43 6.86c-3.4 5.52-9.97 9.2-18.02 10.14a38.5 38.5 0 0 1-4.02.23c-5.25.05-10.93-.82-16.4-1.68-2.97-.46-6-.92-8.95-1.24-2.3-.26-4.6-.4-6.91-.4-.8 0-1.6.04-2.34.1-5.02.36-8.33 2.24-9.83 5.59-2.35 5.23-.06 12.9 3.4 17.04a27.88 27.88 0 0 0 4.28 4c-1.5-2.76-2.16-5.44-1.86-7.72.3-2.25 1.64-5.17 6.41-6.34 1.58-.37 3.2-.56 4.82-.56 4.5-.04 9.34 1.06 14.46 2.22 4.3.97 8.74 1.97 13.17 2.33.62.05 1.24.09 1.86.11 9.02.36 15.98-2.27 19.98-7.58 4.14-5.5 5-13.64 2.43-22.94l-.05-.16Zm-.77-5.28.91 2.59c.3.85.58 1.73.82 2.6 2.66 9.59 1.74 18.03-2.58 23.77-3.89 5.16-10.4 7.92-18.78 8-.7.01-1.43 0-2.16-.03-5.1-.22-10.15-1.37-15.04-2.48-5.06-1.15-9.84-2.24-14.24-2.2a20 20 0 0 0-4.6.54c-4.25 1.04-5.45 3.59-5.7 5.54-.35 2.63.72 5.88 3 9.15l1.52 2.19-2.18-1.53a33.01 33.01 0 0 1-6.42-5.6c-3.72-4.46-6.08-12.41-3.55-18.04 1.66-3.7 5.24-5.77 10.63-6.15.77-.06 1.57-.09 2.4-.1 5.05-.04 10.62.82 16 1.65 5.45.84 11.08 1.7 16.26 1.66 1.3 0 2.62-.08 3.92-.23 7.76-.89 14.08-4.42 17.32-9.69a16.8 16.8 0 0 0 2.46-8.9V23.1Z" fill="#5F609F"/><path opacity=".87" d="M94.8 28.01a17.4 17.4 0 0 1-2.44 6.91c-3.43 5.55-10.04 9.26-18.14 10.18-1.35.15-2.7.23-4.05.24-5.29.04-10.99-.84-16.5-1.7-3-.46-6.03-.93-9-1.26-2.31-.27-4.64-.4-6.96-.4-.8 0-1.6.04-2.35.09-5.05.36-8.38 2.25-9.9 5.62-2.36 5.26-.07 12.98 3.42 17.15a27.86 27.86 0 0 0 4.3 4.02c-1.52-2.77-2.18-5.46-1.87-7.77.3-2.26 1.66-5.2 6.46-6.37 1.59-.37 3.21-.56 4.84-.56 4.54-.03 9.4 1.07 14.55 2.24 4.33.99 8.78 2 13.24 2.36.63.05 1.25.09 1.87.11 9.09.37 16.1-2.27 20.13-7.61 4.17-5.53 5.04-13.73 2.45-23.08l-.05-.17Zm-.77-5.3.91 2.6c.3.86.58 1.74.83 2.62 2.66 9.65 1.74 18.14-2.62 23.91-3.92 5.2-10.46 7.97-18.9 8.04-.71.01-1.44 0-2.17-.03-5.13-.23-10.21-1.39-15.13-2.5-5.1-1.17-9.9-2.27-14.34-2.23-1.55 0-3.1.18-4.62.54-4.28 1.04-5.48 3.6-5.74 5.57-.35 2.64.72 5.9 3 9.2l1.54 2.2-2.2-1.54c-2.84-1.99-4.85-3.74-6.45-5.63-3.74-4.48-6.1-12.49-3.56-18.15 1.67-3.72 5.27-5.8 10.7-6.19.78-.05 1.59-.08 2.41-.09 5.1-.04 10.7.83 16.12 1.67 5.47.85 11.14 1.73 16.35 1.68 1.32 0 2.63-.08 3.94-.23 7.81-.89 14.17-4.44 17.44-9.73a16.9 16.9 0 0 0 2.48-8.96v-2.75Z" fill="#5F60A0"/><path opacity=".88" d="M94.99 27.65a17.52 17.52 0 0 1-2.47 6.95c-3.45 5.58-10.1 9.31-18.26 10.23-1.35.15-2.71.23-4.07.23-5.33.04-11.06-.85-16.6-1.72-3.01-.47-6.07-.94-9.06-1.27a61.2 61.2 0 0 0-7-.4c-.82 0-1.61.03-2.37.08-5.08.36-8.44 2.25-9.96 5.65-2.39 5.29-.08 13.06 3.42 17.25a28.14 28.14 0 0 0 4.32 4.05c-1.52-2.79-2.18-5.5-1.87-7.81.3-2.27 1.68-5.23 6.5-6.4 1.6-.38 3.24-.57 4.88-.57 4.56-.03 9.46 1.09 14.64 2.27 4.34 1 8.82 2.01 13.3 2.38.63.06 1.26.1 1.88.12 9.15.39 16.2-2.27 20.27-7.64 4.2-5.56 5.09-13.8 2.5-23.22a2.85 2.85 0 0 0-.05-.18Zm-.78-5.34.92 2.62c.3.87.59 1.76.83 2.64 2.68 9.71 1.74 18.26-2.65 24.06-3.95 5.22-10.53 8-19.02 8.07-.72 0-1.45 0-2.19-.04-5.15-.23-10.27-1.4-15.22-2.53-5.12-1.17-9.96-2.28-14.42-2.24-1.57 0-3.13.18-4.65.54-4.3 1.04-5.52 3.62-5.78 5.6-.36 2.66.72 5.95 3.02 9.27l1.54 2.21-2.2-1.54a33.43 33.43 0 0 1-6.5-5.68c-3.76-4.52-6.13-12.58-3.56-18.28 1.68-3.74 5.3-5.83 10.77-6.21.78-.06 1.59-.09 2.42-.1 5.12-.03 10.76.85 16.2 1.7 5.52.86 11.22 1.75 16.46 1.7 1.32 0 2.65-.07 3.97-.21 7.85-.9 14.25-4.46 17.55-9.79a17.03 17.03 0 0 0 2.5-9l.01-2.79Z" fill="#6061A1"/><path opacity=".9" d="M95.18 27.3a17.65 17.65 0 0 1-2.5 6.98c-3.47 5.6-10.17 9.36-18.37 10.28-1.36.15-2.73.23-4.1.23-5.35.04-11.12-.87-16.7-1.74-3.03-.47-6.1-.96-9.11-1.29a61.69 61.69 0 0 0-7.04-.42c-.82 0-1.62.04-2.38.09-5.12.36-8.5 2.27-10.03 5.68-2.4 5.32-.09 13.14 3.43 17.37a28.15 28.15 0 0 0 4.34 4.08c-1.52-2.81-2.18-5.54-1.87-7.86.3-2.3 1.69-5.27 6.55-6.45 1.6-.38 3.25-.56 4.9-.56 4.6-.03 9.52 1.1 14.73 2.3 4.36 1 8.86 2.02 13.37 2.4.63.05 1.26.1 1.89.12 9.2.4 16.32-2.28 20.4-7.68 4.24-5.59 5.14-13.88 2.53-23.35l-.04-.19Zm-.78-5.38.93 2.64c.3.87.58 1.76.82 2.66 2.7 9.77 1.74 18.36-2.68 24.2-3.97 5.24-10.6 8.04-19.15 8.1-.72 0-1.45 0-2.2-.04-5.18-.23-10.33-1.41-15.3-2.55-5.16-1.19-10.03-2.3-14.51-2.28-1.58 0-3.15.18-4.69.54-4.33 1.05-5.55 3.64-5.82 5.63-.35 2.67.72 5.98 3.04 9.33l1.54 2.22-2.22-1.56a33.7 33.7 0 0 1-6.53-5.72c-3.78-4.54-6.16-12.64-3.56-18.38 1.7-3.76 5.34-5.86 10.84-6.24.78-.05 1.6-.08 2.44-.09 5.15-.03 10.82.85 16.3 1.72 5.55.86 11.28 1.76 16.55 1.73 1.34 0 2.67-.08 4-.22 7.9-.9 14.35-4.48 17.66-9.83a17.07 17.07 0 0 0 2.53-9.06l.01-2.8Z" fill="#6162A2"/><path opacity=".91" d="M95.36 26.94a17.72 17.72 0 0 1-2.5 7.02c-3.5 5.64-10.25 9.4-18.5 10.33-1.37.15-2.75.23-4.13.23-5.38.03-11.19-.88-16.8-1.77-3.05-.47-6.14-.96-9.17-1.3a61.46 61.46 0 0 0-7.08-.42c-.83 0-1.63.04-2.4.09-5.14.35-8.54 2.27-10.09 5.7-2.42 5.35-.1 13.23 3.44 17.47a28.21 28.21 0 0 0 4.36 4.1c-1.53-2.82-2.2-5.57-1.88-7.9.31-2.3 1.7-5.3 6.6-6.48 1.61-.38 3.27-.56 4.93-.56 4.62-.03 9.57 1.12 14.82 2.32 4.38 1 8.9 2.05 13.44 2.43.63.06 1.26.1 1.9.12 9.27.41 16.43-2.27 20.55-7.7 4.26-5.62 5.17-13.97 2.56-23.5l-.05-.18Zm-.77-5.41.93 2.66c.3.87.58 1.77.83 2.67 2.7 9.83 1.73 18.48-2.72 24.34-4 5.28-10.67 8.1-19.27 8.15-.72 0-1.46-.02-2.21-.05-5.22-.23-10.4-1.43-15.4-2.58-5.19-1.2-10.09-2.32-14.6-2.3-1.58 0-3.16.18-4.7.53-4.36 1.06-5.6 3.66-5.87 5.66-.36 2.7.72 6.03 3.05 9.4l1.55 2.23-2.23-1.57a33.58 33.58 0 0 1-6.56-5.76c-3.8-4.57-6.19-12.73-3.58-18.5 1.71-3.78 5.38-5.88 10.92-6.27.78-.05 1.6-.08 2.45-.09 5.18-.03 10.88.87 16.4 1.74 5.58.88 11.35 1.79 16.65 1.76 1.34 0 2.68-.08 4.02-.23 7.95-.89 14.43-4.48 17.78-9.87a17.2 17.2 0 0 0 2.54-9.12l.02-2.8Z" fill="#6162A3"/><path opacity=".92" d="M95.55 26.57c-.33 2.51-1.2 4.92-2.53 7.07-3.53 5.67-10.31 9.46-18.62 10.38-1.37.15-2.76.22-4.14.23-5.42.02-11.26-.9-16.9-1.8-3.06-.48-6.18-.97-9.22-1.3A62.29 62.29 0 0 0 37 40.7c-.83 0-1.64.03-2.4.08-5.19.35-8.6 2.28-10.17 5.73-2.44 5.38-.1 13.3 3.45 17.58a28.02 28.02 0 0 0 4.39 4.14c-1.54-2.85-2.2-5.62-1.89-7.97.31-2.31 1.72-5.32 6.64-6.5 1.63-.38 3.3-.57 4.97-.57 4.65-.02 9.63 1.13 14.9 2.35 4.4 1.02 8.95 2.06 13.5 2.45.64.06 1.28.1 1.91.13 9.34.42 16.55-2.27 20.7-7.74 4.3-5.65 5.21-14.05 2.6-23.64l-.06-.18Zm-.77-5.44.93 2.67c.3.88.59 1.79.84 2.7 2.7 9.88 1.72 18.58-2.75 24.48-4.03 5.3-10.75 8.13-19.4 8.18-.72 0-1.47-.02-2.22-.05-5.25-.24-10.46-1.44-15.5-2.6-5.21-1.21-10.14-2.35-14.67-2.33-1.6 0-3.19.17-4.75.54-4.38 1.05-5.62 3.67-5.9 5.68-.36 2.7.73 6.06 3.07 9.45l1.55 2.26-2.24-1.58a33.63 33.63 0 0 1-6.6-5.8c-3.82-4.6-6.22-12.81-3.59-18.62 1.73-3.8 5.42-5.92 10.99-6.3.79-.05 1.62-.08 2.47-.08 5.2-.03 10.95.88 16.5 1.76 5.6.89 11.4 1.8 16.74 1.78 1.35 0 2.7-.08 4.05-.22 8-.9 14.52-4.5 17.9-9.93a17.3 17.3 0 0 0 2.56-9.16l.02-2.83Z" fill="#6263A4"/><path opacity=".93" d="M95.74 26.21a17.95 17.95 0 0 1-2.55 7.11c-3.55 5.7-10.38 9.5-18.74 10.43-1.38.15-2.78.22-4.17.22-5.45.03-11.32-.9-17-1.82-3.08-.49-6.21-.98-9.27-1.33a62.41 62.41 0 0 0-7.17-.44c-.84 0-1.65.04-2.42.09-5.21.35-8.65 2.28-10.23 5.75-2.45 5.42-.12 13.4 3.45 17.7a28.49 28.49 0 0 0 4.42 4.15c-1.54-2.86-2.21-5.64-1.9-8 .32-2.34 1.74-5.36 6.69-6.55 1.64-.38 3.31-.57 5-.56 4.67-.02 9.68 1.14 14.99 2.37 4.43 1.02 9 2.08 13.57 2.48.64.06 1.28.1 1.91.13 9.4.43 16.66-2.28 20.85-7.78 4.32-5.68 5.25-14.12 2.62-23.77a8.98 8.98 0 0 1-.05-.18Zm-.77-5.47.93 2.69c.3.88.6 1.8.84 2.7 2.71 9.96 1.72 18.7-2.79 24.64-4.06 5.33-10.81 8.16-19.51 8.2-.73 0-1.48 0-2.24-.04-5.29-.25-10.52-1.46-15.59-2.64-5.24-1.21-10.2-2.36-14.76-2.34-1.6-.01-3.2.17-4.77.53-4.41 1.06-5.66 3.7-5.94 5.72-.37 2.72.72 6.1 3.07 9.5l1.56 2.28-2.25-1.6c-2.94-2.08-5-3.88-6.63-5.83-3.85-4.63-6.25-12.9-3.6-18.73 1.74-3.82 5.47-5.95 11.07-6.33.8-.05 1.63-.08 2.48-.08 5.24-.03 11.01.9 16.6 1.78 5.64.9 11.48 1.82 16.84 1.8 1.36 0 2.72-.08 4.06-.22 8.06-.89 14.62-4.52 18.02-9.97a17.4 17.4 0 0 0 2.58-9.22l.03-2.84Z" fill="#6263A5"/><path opacity=".94" d="M95.93 25.85A18.07 18.07 0 0 1 93.36 33c-3.58 5.73-10.45 9.55-18.86 10.47-1.4.15-2.8.22-4.2.23-5.48.01-11.4-.93-17.1-1.84-3.1-.5-6.25-1-9.33-1.35-2.4-.28-4.8-.43-7.21-.45-.84 0-1.66.03-2.43.09-5.25.34-8.71 2.29-10.3 5.78-2.47 5.44-.13 13.47 3.46 17.79a28.47 28.47 0 0 0 4.44 4.19c-1.55-2.87-2.22-5.67-1.9-8.05.33-2.35 1.75-5.39 6.73-6.58a21.8 21.8 0 0 1 5.03-.56c4.7-.02 9.74 1.16 15.07 2.4 4.46 1.03 9.04 2.1 13.65 2.5.64.06 1.28.1 1.92.13 9.46.45 16.77-2.27 20.99-7.8 4.35-5.72 5.3-14.2 2.66-23.92a3.27 3.27 0 0 1-.05-.18Zm-.77-5.5.94 2.7c.3.9.6 1.82.84 2.73 2.72 10.02 1.72 18.81-2.83 24.78-4.08 5.36-10.88 8.2-19.63 8.25-.74 0-1.49-.02-2.25-.05-5.32-.26-10.58-1.49-15.68-2.67-5.27-1.22-10.26-2.38-14.85-2.37-1.61 0-3.22.17-4.8.54-4.43 1.06-5.7 3.7-5.97 5.74-.38 2.74.72 6.13 3.08 9.56l1.57 2.3-2.26-1.61a34.05 34.05 0 0 1-6.67-5.89c-3.87-4.65-6.27-12.97-3.6-18.84 1.75-3.84 5.5-5.98 11.13-6.35.8-.06 1.63-.09 2.5-.09 5.27-.02 11.07.91 16.68 1.8 5.68.91 11.55 1.85 16.96 1.83 1.36 0 2.73-.08 4.09-.22 8.1-.89 14.7-4.54 18.12-10.01a17.53 17.53 0 0 0 2.61-9.28l.02-2.85Z" fill="#6364A6"/><path opacity=".95" d="M96.12 25.5c-.35 2.55-1.23 5-2.6 7.18-3.6 5.77-10.51 9.6-18.97 10.52-1.4.15-2.81.22-4.22.22-5.51.02-11.46-.94-17.2-1.86-3.12-.5-6.29-1-9.38-1.36a63.7 63.7 0 0 0-7.26-.45c-.84 0-1.66.03-2.45.08-5.27.34-8.75 2.3-10.35 5.8-2.5 5.48-.14 13.56 3.46 17.9a28.62 28.62 0 0 0 4.46 4.23c-1.56-2.9-2.23-5.72-1.9-8.11.32-2.36 1.76-5.42 6.77-6.61 1.66-.39 3.36-.57 5.06-.56 4.73-.02 9.8 1.17 15.16 2.42 4.48 1.04 9.09 2.11 13.71 2.53.65.06 1.3.1 1.94.14 9.52.45 16.88-2.28 21.13-7.84 4.38-5.74 5.33-14.29 2.69-24.06l-.05-.18Zm-.78-5.55.94 2.72c.31.9.6 1.82.84 2.74 2.73 10.08 1.72 18.93-2.86 24.92-4.11 5.4-10.95 8.26-19.75 8.29-.74 0-1.5-.02-2.27-.05-5.34-.27-10.64-1.5-15.76-2.7-5.3-1.24-10.32-2.4-14.94-2.4-1.62 0-3.24.18-4.83.54-4.46 1.06-5.73 3.73-6.01 5.78-.38 2.75.72 6.16 3.09 9.62l1.58 2.3-2.27-1.61a34.1 34.1 0 0 1-6.7-5.92c-3.89-4.68-6.3-13.05-3.61-18.96 1.76-3.86 5.53-6.01 11.2-6.38.8-.05 1.64-.08 2.5-.08 5.31-.02 11.15.92 16.8 1.82 5.7.91 11.61 1.86 17.04 1.85 1.38 0 2.75-.08 4.12-.22 8.15-.89 14.8-4.56 18.24-10.06a17.62 17.62 0 0 0 2.63-9.33l.02-2.87Z" fill="#6465A7"/><path opacity=".97" d="M96.3 25.13a18.27 18.27 0 0 1-2.6 7.23c-3.64 5.8-10.6 9.65-19.1 10.57-1.41.15-2.83.23-4.25.22-5.54.02-11.52-.95-17.3-1.88-3.13-.5-6.32-1.02-9.43-1.37a63.5 63.5 0 0 0-7.3-.47c-.84 0-1.68.03-2.46.08-5.3.34-8.81 2.3-10.42 5.83-2.52 5.51-.16 13.64 3.47 18.02a28.67 28.67 0 0 0 4.48 4.25c-1.57-2.92-2.24-5.76-1.9-8.16.32-2.37 1.77-5.45 6.81-6.65 1.67-.38 3.38-.57 5.09-.56 4.76 0 9.85 1.18 15.25 2.45 4.5 1.05 9.13 2.13 13.77 2.55.65.06 1.3.1 1.95.14 9.58.47 17-2.27 21.27-7.87 4.41-5.77 5.38-14.36 2.72-24.2l-.05-.18Zm-.77-5.57.94 2.73c.32.9.6 1.84.84 2.76 2.74 10.14 1.72 19.04-2.89 25.07-4.14 5.42-11.03 8.29-19.88 8.32-.75 0-1.5-.02-2.28-.06-5.37-.26-10.7-1.51-15.86-2.72-5.33-1.25-10.37-2.43-15.02-2.42-1.63 0-3.26.17-4.85.54-4.5 1.06-5.78 3.74-6.06 5.8-.38 2.77.72 6.2 3.1 9.68l1.6 2.32-2.3-1.62A34.2 34.2 0 0 1 26.13 64c-3.9-4.71-6.33-13.13-3.61-19.07 1.77-3.89 5.56-6.05 11.26-6.42.81-.05 1.66-.08 2.53-.08 5.33-.01 11.2.94 16.88 1.85 5.75.93 11.68 1.89 17.15 1.87 1.38 0 2.76-.07 4.14-.21 8.2-.89 14.89-4.57 18.35-10.1a17.74 17.74 0 0 0 2.66-9.4l.04-2.88Z" fill="#6465A8"/><path opacity=".98" d="M96.5 24.77a18.39 18.39 0 0 1-2.64 7.27c-3.65 5.83-10.66 9.7-19.21 10.62-1.42.15-2.85.22-4.27.22-5.58.01-11.6-.96-17.4-1.9-3.16-.52-6.36-1.04-9.5-1.4-2.43-.3-4.88-.45-7.33-.47-.86 0-1.68.03-2.48.08-5.34.34-8.87 2.31-10.49 5.86-2.53 5.54-.16 13.72 3.48 18.12a28.9 28.9 0 0 0 4.51 4.28c-1.57-2.94-2.25-5.8-1.91-8.21.33-2.38 1.79-5.48 6.86-6.68 1.68-.38 3.4-.57 5.12-.56 4.79 0 9.91 1.2 15.34 2.47 4.52 1.06 9.17 2.15 13.84 2.58.65.06 1.3.11 1.96.14 9.65.48 17.11-2.27 21.42-7.9 4.44-5.8 5.42-14.44 2.75-24.33a1.64 1.64 0 0 1-.06-.19Zm-.78-5.6.94 2.75c.32.91.6 1.85.86 2.78 2.74 10.2 1.7 19.15-2.93 25.22-4.17 5.44-11.1 8.33-20 8.35-.75 0-1.52-.02-2.3-.06-5.4-.27-10.76-1.53-15.94-2.74C50.98 54.2 45.9 53 41.24 53.02c-1.65-.01-3.29.17-4.89.53-4.52 1.07-5.8 3.77-6.1 5.84-.38 2.78.72 6.24 3.12 9.74l1.6 2.33-2.3-1.63c-3.03-2.15-5.12-4-6.78-6-3.92-4.74-6.36-13.21-3.62-19.18 1.78-3.91 5.6-6.08 11.34-6.45.8-.05 1.66-.08 2.54-.08 5.36 0 11.27.95 16.98 1.88 5.78.93 11.75 1.9 17.24 1.89 1.4 0 2.79-.07 4.17-.21 8.25-.89 14.98-4.59 18.47-10.15a17.84 17.84 0 0 0 2.68-9.44l.03-2.92Z" fill="#6566A9"/><path opacity=".99" d="M96.68 24.41c-.35 2.6-1.26 5.1-2.65 7.32-3.68 5.86-10.73 9.74-19.33 10.66a41.3 41.3 0 0 1-4.3.22c-5.6 0-11.66-.98-17.51-1.93-3.17-.52-6.4-1.04-9.54-1.4-2.45-.3-4.92-.46-7.38-.48-.86 0-1.7.03-2.5.08-5.36.34-8.91 2.32-10.55 5.88-2.54 5.57-.17 13.8 3.5 18.23a28.96 28.96 0 0 0 4.53 4.3c-1.58-2.95-2.26-5.82-1.92-8.26.34-2.4 1.8-5.51 6.9-6.71 1.7-.4 3.42-.58 5.15-.57 4.82 0 9.97 1.22 15.43 2.5 4.54 1.07 9.21 2.17 13.91 2.6.65.07 1.3.12 1.96.15 9.71.49 17.22-2.28 21.56-7.94 4.47-5.83 5.46-14.52 2.8-24.47l-.06-.18Zm-.78-5.64.96 2.77c.31.92.6 1.86.85 2.8 2.76 10.25 1.7 19.26-2.96 25.35-4.2 5.48-11.17 8.37-20.13 8.39-.75 0-1.52-.02-2.3-.06-5.44-.28-10.83-1.54-16.04-2.77-5.4-1.28-10.5-2.48-15.2-2.48-1.65-.01-3.3.17-4.91.54-4.55 1.07-5.85 3.78-6.14 5.86-.39 2.8.72 6.28 3.13 9.8l1.6 2.35-2.31-1.66a34.45 34.45 0 0 1-6.81-6.03c-3.95-4.77-6.38-13.3-3.63-19.3 1.8-3.93 5.64-6.11 11.4-6.48.82-.05 1.69-.07 2.56-.08 5.4 0 11.34.97 17.09 1.9 5.8.95 11.81 1.92 17.34 1.92 1.4 0 2.8-.07 4.19-.21 8.3-.89 15.07-4.6 18.58-10.2a17.91 17.91 0 0 0 2.7-9.48l.03-2.93Z" fill="#6566AA"/><path d="M35.8 38.47c-.86 0-1.7.03-2.5.08-5.4.34-8.97 2.33-10.62 5.91-2.57 5.6-.19 13.88 3.5 18.34a28.97 28.97 0 0 0 4.56 4.33c-1.6-2.97-2.27-5.86-1.93-8.3.34-2.42 1.82-5.54 6.95-6.75 1.7-.39 3.44-.58 5.18-.56 4.84 0 10.02 1.22 15.51 2.52 5.2 1.23 10.57 2.5 15.95 2.78 9.77.5 17.34-2.27 21.7-7.97 4.5-5.86 5.5-14.6 2.83-24.61a9.01 9.01 0 0 0-.05-.19 18.59 18.59 0 0 1-2.68 7.35c-3.7 5.9-10.8 9.8-19.45 10.72-1.44.15-2.88.22-4.32.22-5.64 0-11.73-1-17.6-1.96-5.75-.94-11.68-1.9-17.03-1.9ZM34.56 71.2l-2.33-1.67a34.79 34.79 0 0 1-6.84-6.07c-3.97-4.8-6.41-13.37-3.64-19.41 1.81-3.96 5.67-6.14 11.48-6.5.83-.06 1.69-.09 2.57-.09 5.43 0 11.4.98 17.18 1.92 5.85.96 11.89 1.94 17.45 1.94 1.4 0 2.81-.06 4.21-.2 8.34-.9 15.16-4.63 18.7-10.25a18.04 18.04 0 0 0 2.72-9.54l.03-2.94.96 2.79c.32.92.6 1.86.86 2.8 2.76 10.33 1.7 19.38-3 25.5-4.58 5.97-12.44 8.89-22.57 8.37-5.46-.29-10.89-1.57-16.13-2.8-5.42-1.29-10.55-2.5-15.28-2.5-1.66-.02-3.32.16-4.94.53-4.57 1.08-5.88 3.8-6.18 5.9-.39 2.81.72 6.31 3.14 9.86l1.61 2.36Z" fill="#6667AB"/><path d="M34.25 70.96s-1.79-1.13-2.37-1.53A31.68 31.68 0 0 1 25 63.36c-3.99-4.8-6.45-13.37-3.66-19.42 1.82-3.95 5.7-6.14 11.54-6.5.83-.05 1.7-.08 2.58-.08 5.47 0 11.47.98 17.28 1.92 5.87.96 11.94 1.95 17.53 1.95 1.41 0 2.83-.07 4.24-.21 8.38-.89 15.24-4.63 18.8-10.25 1.77-2.8 2.69-6.01 2.73-9.54l.03-2.94.96 2.79c.32.92.61 1.87.87 2.8 2.78 10.32 1.7 19.38-3.02 25.5-4.6 5.97-12.5 8.88-22.68 8.36-5.5-.28-10.95-1.56-16.22-2.8-5.46-1.28-10.6-2.5-15.36-2.5-1.67-.01-3.34.17-4.97.54-4.6 1.07-5.91 3.8-6.2 5.9-.4 2.81.72 6.31 3.15 9.86l1.65 2.22Zm1.21-32.58c-.86 0-1.71.03-2.52.08-5.43.33-9.02 2.32-10.67 5.91-2.59 5.6-.19 13.88 3.51 18.34a28.91 28.91 0 0 0 4.58 4.33c-1.6-2.97-2.28-5.86-1.93-8.3.34-2.42 1.82-5.55 6.99-6.75 1.7-.4 3.45-.58 5.2-.56 4.87 0 10.09 1.22 15.6 2.52 5.22 1.23 10.62 2.5 16.03 2.77 9.82.5 17.43-2.27 21.82-7.96 4.52-5.87 5.53-14.6 2.83-24.62l-.05-.18a18.54 18.54 0 0 1-2.68 7.35c-3.73 5.88-10.85 9.8-19.56 10.72-1.44.14-2.9.21-4.34.21-5.67 0-11.79-1-17.7-1.96-5.77-.93-11.73-1.9-17.1-1.9Z" fill="url(#e)"/><defs><linearGradient id="a" x1="114.1" y1="87.66" x2="114.1" y2="96.68" gradientUnits="userSpaceOnUse"><stop stop-color="#fff"/><stop offset=".75" stop-color="#4D4D80"/><stop offset="1" stop-color="#6667AB"/></linearGradient><linearGradient id="b" x1="86.84" y1="27.85" x2="96.41" y2="27.85" gradientUnits="userSpaceOnUse"><stop stop-color="#4D4F82"/><stop offset="1" stop-color="#6566AA"/></linearGradient><linearGradient id="d" x1="16.44" y1="21.33" x2="75.55" y2="21.33" gradientUnits="userSpaceOnUse"><stop offset=".01" stop-color="#6667AB" stop-opacity=".4"/><stop offset="1" stop-color="#6667AB"/></linearGradient><linearGradient id="e" x1="20.15" y1="44.62" x2="99.41" y2="44.62" gradientUnits="userSpaceOnUse"><stop stop-color="#fff"/><stop offset="1" stop-color="#6667AB"/></linearGradient><radialGradient id="c" cx="0" cy="0" r="1" gradientUnits="userSpaceOnUse" gradientTransform="matrix(17.43065 53.41658 -86.37265 28.18472 57.03 2.41)"><stop offset=".01" stop-color="#6667AB"/><stop offset=".04" stop-color="#6667AB" stop-opacity=".83"/><stop offset=".11" stop-color="#6667AB" stop-opacity=".5"/><stop offset=".33" stop-color="#42436F" stop-opacity=".33"/><stop offset=".77" stop-opacity="0"/></radialGradient></defs></svg>